<!-- I AM SANGEETH.svg -->
<svg xmlns="http://www.w3.org/2000/svg" viewBox="0.0375 12.035 302.996 48.672">
  <path class="line" d="M17.92 49.95Q16.85 49.66 15.67 49.71Q14.50 49.76 13.38 49.66Q12.84 49.56 12.28 49.37Q11.72 49.17 11.13 49.07Q8.79 48.63 7.06 48.88Q5.32 49.12 3.47 49.71Q3.08 49.85 2.66 50.02Q2.25 50.20 1.81 50.34Q1.37 50.49 0.90 50.51Q0.44 50.54 0 50.29Q0.15 49.66 0.56 49.22Q0.98 48.78 1.49 48.36Q2.00 47.95 2.47 47.46Q2.93 46.97 3.13 46.29Q3.27 45.75 3.22 45.24Q3.17 44.73 3.27 44.14Q3.37 43.26 3.69 42.16Q4.00 41.06 4.35 40.09Q4.69 39.06 4.98 38.06Q5.27 37.06 5.57 36.18Q5.76 35.69 6.23 35.23Q6.69 34.77 6.79 34.03Q6.84 33.64 6.71 33.28Q6.59 32.91 6.64 32.67Q6.69 32.32 6.88 32.03Q7.08 31.74 7.18 31.40Q7.28 31.15 7.32 30.86Q7.37 30.57 7.47 30.32Q7.71 29.44 7.96 28.34Q8.20 27.25 8.45 26.32Q8.69 25.49 9.11 24.80Q9.52 24.12 9.67 23.39Q9.67 23.05 9.45 22.92Q9.23 22.80 9.13 22.46Q9.38 21.92 9.33 21.02Q9.28 20.12 9.33 19.38Q9.42 18.51 9.55 17.85Q9.67 17.19 9.33 16.46Q9.08 15.92 8.69 15.48Q8.30 15.04 8.45 14.26Q9.03 14.11 9.59 14.04Q10.16 13.96 10.84 14.01Q11.18 14.06 11.47 14.21Q11.77 14.36 12.16 14.45Q13.28 14.60 14.38 14.48Q15.48 14.36 16.50 14.36Q17.53 14.36 18.02 14.40Q18.51 14.45 19.38 14.36Q20.51 14.26 21.58 13.89Q22.66 13.53 23.68 13.38Q24.17 13.28 24.85 13.38Q25.54 13.48 25.98 13.87Q26.07 14.60 25.61 14.79Q25.15 14.99 24.76 15.19Q23.97 15.58 23.54 16.11Q23.10 16.65 22.56 17.33Q22.22 17.77 21.95 18.07Q21.68 18.36 21.44 18.90Q21.34 19.14 21.31 19.51Q21.29 19.87 21.14 20.17Q20.75 21.24 20.09 22.31Q19.43 23.39 19.19 24.32Q19.09 24.80 19.07 25.24Q19.04 25.68 18.95 26.17Q18.75 26.81 18.41 27.56Q18.07 28.32 17.77 29.10Q17.38 30.08 16.92 31.27Q16.46 32.47 16.11 33.59Q15.92 34.33 15.80 35.08Q15.67 35.84 15.53 36.62Q15.43 37.35 15.38 38.18Q15.33 39.01 15.09 39.65Q14.89 40.14 14.43 40.48Q13.96 40.82 13.72 41.36Q13.82 41.55 13.99 41.65Q14.16 41.75 14.11 42.04Q13.96 42.33 13.82 42.70Q13.67 43.07 13.72 43.46Q13.82 43.95 14.18 44.36Q14.55 44.78 14.65 45.17Q14.75 45.46 14.70 45.70Q14.65 45.95 14.75 46.19Q14.89 46.73 15.31 47.22Q15.72 47.71 16.11 47.95Q16.70 48.34 17.36 48.54Q18.02 48.73 18.31 49.41L17.92 49.95ZM46.63 48.54Q45.65 48.54 45.19 48.95Q44.73 49.37 44.53 50Q43.95 49.85 43.19 49.95Q42.43 50.05 41.67 50.15Q40.92 50.24 40.21 50.27Q39.50 50.29 39.01 50Q38.77 49.85 38.62 49.58Q38.48 49.32 38.28 49.07Q38.09 48.78 37.87 48.54Q37.65 48.29 37.60 48.05Q37.50 47.75 37.74 47.19Q37.99 46.63 38.18 46.39Q38.38 46.24 38.65 46.14Q38.92 46.04 39.16 45.85Q39.84 45.31 40.16 44.51Q40.48 43.70 40.72 43.21Q41.06 42.97 41.53 42.70Q41.99 42.43 41.89 41.99Q41.46 41.75 40.87 41.77Q40.28 41.80 39.70 41.75Q38.72 41.75 37.74 41.60Q36.77 41.46 35.99 41.36Q34.72 41.11 33.76 40.19Q32.81 39.26 32.96 37.84Q33.30 37.70 33.72 37.70Q34.13 37.70 34.59 37.74Q35.06 37.79 35.52 37.82Q35.99 37.84 36.38 37.70Q36.82 37.99 37.18 37.99Q37.55 37.99 37.87 37.84Q38.18 37.70 38.48 37.52Q38.77 37.35 39.01 37.30Q39.26 37.26 39.45 37.30Q39.65 37.35 39.89 37.35Q40.28 37.35 40.67 37.23Q41.06 37.11 41.60 37.01Q42.33 36.91 43.12 36.89Q43.90 36.87 44.43 36.62Q44.78 36.47 45.21 36.11Q45.65 35.74 45.85 35.45Q45.95 35.21 45.92 34.99Q45.90 34.77 46.00 34.52Q46.24 33.69 46.85 33.06Q47.46 32.42 47.85 31.64Q48.00 31.25 48.07 31.05Q48.14 30.86 48.19 30.71Q48.24 30.57 48.32 30.37Q48.39 30.18 48.63 29.79Q49.07 29.10 49.54 28.47Q50 27.83 50.63 27.25Q50.63 26.95 50.73 26.73Q50.83 26.51 50.93 26.27Q52.25 25.73 53.08 24.85Q53.91 23.97 54.74 23.00Q54.69 22.51 54.93 22.29Q55.18 22.07 55.18 21.58Q55.18 21.34 55.00 21.02Q54.83 20.70 54.83 20.36Q54.83 19.97 55.15 19.56Q55.47 19.14 55.71 18.80Q56.10 18.41 56.32 18.02Q56.54 17.63 56.79 17.29Q57.18 16.85 57.59 16.50Q58.01 16.16 58.40 15.67Q58.59 15.38 58.72 15.01Q58.84 14.65 59.13 14.45Q59.57 14.16 60.35 14.11Q61.13 14.06 61.91 14.01Q62.84 13.96 63.94 13.79Q65.04 13.62 66.14 13.43Q67.24 13.23 68.29 13.06Q69.34 12.89 70.21 12.84Q71.09 12.74 71.90 12.79Q72.71 12.84 73.19 12.65Q73.88 13.23 74.58 13.79Q75.29 14.36 75.93 14.99Q76.12 15.97 76.27 16.80Q76.42 17.63 76.32 18.46Q76.22 18.85 76.00 19.19Q75.78 19.53 75.83 19.97Q75.83 20.70 76.27 21.41Q76.71 22.12 76.90 22.95Q76.95 23.34 76.78 23.71Q76.61 24.07 76.56 24.46Q76.51 24.85 76.61 25.32Q76.71 25.78 76.81 26.27Q76.81 26.86 76.76 27.44Q76.71 28.03 76.81 28.66Q76.90 29.30 77.05 29.96Q77.20 30.62 77.15 31.30Q77.05 31.98 76.88 32.57Q76.71 33.15 76.71 33.79Q76.66 34.67 76.81 35.47Q76.95 36.28 76.71 37.11Q77.10 37.60 77.12 38.09Q77.15 38.57 77.05 39.06Q76.95 39.55 76.86 40.06Q76.76 40.58 76.95 41.11Q77.05 41.46 77.34 41.72Q77.64 41.99 77.73 42.38Q77.88 42.87 77.91 43.58Q77.93 44.29 77.93 44.92Q77.98 46.48 77.66 47.71Q77.34 48.93 77.29 50.34Q77.29 50.98 77.27 51.76Q77.25 52.54 77.00 52.98Q76.76 53.27 76.22 53.59Q75.68 53.91 75.29 53.96Q74.56 54.00 73.61 53.56Q72.66 53.13 72.17 52.64Q71.73 52.15 71.36 51.56Q71.00 50.98 70.63 50.34Q70.26 49.71 69.87 49.15Q69.48 48.58 68.99 48.19Q68.75 48.05 68.46 47.90Q68.16 47.75 68.02 47.56Q67.72 47.07 67.70 46.46Q67.68 45.85 67.75 45.19Q67.82 44.53 67.90 43.90Q67.97 43.26 67.82 42.77Q67.68 42.29 67.43 42.02Q67.19 41.75 66.82 41.63Q66.46 41.50 65.99 41.48Q65.53 41.46 64.89 41.41Q62.60 41.26 60.16 41.11Q57.71 40.97 55.18 41.02Q54.64 41.02 54.39 41.06Q54.15 41.11 53.96 41.14Q53.76 41.16 53.56 41.21Q53.37 41.26 52.93 41.26Q51.95 41.31 51.17 41.38Q50.39 41.46 49.80 41.89Q49.46 42.14 49.07 42.87Q48.68 43.60 48.49 43.99Q48.24 44.58 48.07 45.21Q47.90 45.85 47.73 46.46Q47.56 47.07 47.31 47.61Q47.07 48.14 46.63 48.54M59.03 35.64Q60.69 35.60 62.23 35.57Q63.77 35.55 65.14 35.45Q65.33 35.35 65.50 35.30Q65.67 35.25 66.06 35.35Q66.06 35.11 66.31 35.08Q66.55 35.06 66.70 34.96Q66.89 34.62 66.89 34.40Q66.89 34.18 66.82 34.01Q66.75 33.84 66.63 33.62Q66.50 33.40 66.50 33.01Q66.50 32.62 66.63 32.20Q66.75 31.79 66.80 31.35Q66.85 31.01 66.72 30.62Q66.60 30.22 66.65 29.83Q66.70 29.49 66.94 29.22Q67.19 28.96 67.19 28.61Q67.19 28.42 67.11 28.17Q67.04 27.93 66.99 27.69Q66.94 27.34 66.97 27.00Q66.99 26.66 66.89 26.42Q66.80 26.03 66.41 25.68Q66.02 25.34 65.92 24.95Q65.77 24.46 65.89 23.85Q66.02 23.24 66.02 22.66Q65.97 21.83 65.87 21.14Q65.77 20.46 65.38 19.78Q64.84 19.48 64.58 19.56Q64.31 19.63 64.14 19.90Q63.96 20.17 63.84 20.51Q63.72 20.85 63.43 21.09Q62.11 22.27 61.38 23.46Q60.64 24.66 59.57 26.07Q59.13 26.61 58.67 27.15Q58.20 27.69 57.84 28.32Q57.47 28.96 57.28 29.64Q57.08 30.32 57.18 31.15Q56.93 31.54 56.76 31.71Q56.59 31.88 56.40 32.03Q56.20 32.18 55.98 32.37Q55.76 32.57 55.47 32.91Q54.93 33.59 54.30 34.30Q53.66 35.01 53.47 35.84Q54.35 36.08 54.98 36.08Q55.62 36.08 56.23 36.01Q56.84 35.94 57.50 35.82Q58.15 35.69 59.03 35.64ZM139.36 12.99Q139.70 13.57 139.70 14.11Q138.57 14.40 137.72 14.77Q136.87 15.14 136.18 15.60Q135.50 16.06 134.94 16.72Q134.38 17.38 133.84 18.26Q133.54 18.70 133.18 18.95Q132.81 19.19 132.57 19.68Q132.23 20.31 132.03 21.07Q131.84 21.83 131.64 22.61Q131.54 22.85 131.45 23.12Q131.35 23.39 131.25 23.63Q131.15 24.17 131.20 24.66Q131.25 25.15 131.05 25.63Q130.91 26.03 130.66 26.27Q130.42 26.51 130.27 26.81Q129.88 27.49 129.76 28.32Q129.64 29.15 129.54 30.08Q129.49 30.37 129.37 30.62Q129.25 30.86 129.15 31.15Q129.05 31.54 129.00 31.91Q128.96 32.28 128.86 32.67Q128.52 33.64 128.15 34.64Q127.78 35.64 127.64 36.62Q127.54 37.16 127.56 37.67Q127.59 38.18 127.49 38.72Q127.25 40.14 126.81 41.43Q126.37 42.72 125.98 43.95Q125.73 44.82 125.61 45.58Q125.49 46.34 125.20 47.17Q125 47.61 124.90 47.97Q124.80 48.34 124.51 48.68Q124.22 49.02 123.68 49.22Q123.14 49.41 122.56 49.56Q121.97 49.71 121.41 49.83Q120.85 49.95 120.41 50.10Q119.97 50.29 119.68 50.66Q119.38 51.03 119.04 51.34Q118.70 51.66 118.29 51.78Q117.87 51.90 117.19 51.61Q117.14 51.03 117.16 50.29Q117.19 49.56 117.29 48.97Q117.43 48.14 117.80 47.51Q118.16 46.88 118.51 46.14Q119.04 44.87 119.19 43.70Q119.34 42.53 119.82 41.26Q120.26 40.97 120.41 40.63Q120.56 40.28 120.58 39.87Q120.61 39.45 120.56 38.96Q120.51 38.48 120.61 37.89Q120.65 37.30 120.90 36.72Q121.14 36.13 121.24 35.50Q121.34 34.96 121.36 34.64Q121.39 34.33 121.41 34.08Q121.44 33.84 121.51 33.57Q121.58 33.30 121.73 32.86Q121.92 32.42 122.17 31.98Q122.41 31.54 122.61 31.05Q123.00 29.79 123.19 28.37Q123.39 26.95 123.58 25.59Q123.68 24.76 123.90 23.73Q124.12 22.71 124.02 21.88Q123.83 21.88 123.32 22.46Q122.80 23.05 122.09 24.00Q121.39 24.95 120.53 26.15Q119.68 27.34 118.87 28.59Q118.07 29.83 117.36 30.93Q116.65 32.03 116.21 32.81Q115.48 33.25 115.11 33.81Q114.75 34.38 114.50 35.01Q114.26 35.64 114.01 36.35Q113.77 37.06 113.28 37.79Q112.89 39.31 111.96 40.77Q111.04 42.24 110.45 43.65Q110.30 44.04 110.18 44.36Q110.06 44.68 109.81 45.07Q109.42 46.04 108.91 46.95Q108.40 47.85 107.86 48.83Q107.28 49.80 106.54 50.63Q106.25 51.03 106.08 51.66Q105.91 52.29 105.57 52.39Q105.13 52.49 104.64 52.27Q104.15 52.05 103.71 51.95Q102.83 50.68 102.69 49.41Q102.69 49.07 102.78 48.75Q102.88 48.44 102.83 48.14Q102.78 47.61 102.39 46.95Q102.00 46.29 101.90 45.61Q101.71 44.78 101.90 44.02Q102.10 43.26 101.90 42.63Q101.81 42.33 101.54 42.11Q101.27 41.89 101.17 41.65Q101.07 41.31 101.10 40.87Q101.12 40.43 101.07 39.99Q100.93 39.16 100.61 38.13Q100.29 37.11 100.05 36.08Q99.80 35.35 99.39 34.38Q98.97 33.40 98.88 32.52Q98.83 32.03 98.80 31.62Q98.78 31.20 98.73 30.81Q98.63 29.93 98.29 28.91Q97.95 27.88 97.58 26.86Q97.22 25.83 96.95 24.80Q96.68 23.78 96.68 22.80Q96.44 22.90 96.24 23.24Q96.04 23.58 95.85 24.07Q95.65 24.56 95.51 25.05Q95.36 25.54 95.26 25.83Q95.12 26.07 94.87 26.37Q94.63 26.66 94.58 27.05Q94.53 27.25 94.65 27.49Q94.78 27.73 94.78 28.03Q94.82 28.81 94.48 29.66Q94.14 30.52 93.90 31.35Q93.65 32.32 93.51 33.37Q93.36 34.42 92.92 35.55Q92.53 36.62 92.31 37.72Q92.09 38.82 91.85 39.70Q91.75 40.33 91.75 40.97Q91.75 41.60 91.55 41.99Q91.31 42.48 90.75 42.77Q90.19 43.07 90.04 43.60Q89.99 44.63 89.60 45.95Q89.21 47.27 88.92 48.39Q88.82 48.83 88.77 49.29Q88.72 49.76 88.60 50.12Q88.48 50.49 88.21 50.76Q87.94 51.03 87.40 51.07Q86.47 51.17 85.57 50.63Q84.67 50.10 84.47 49.51Q84.38 49.12 84.47 48.71Q84.57 48.29 84.57 47.90Q83.94 48.29 83.62 48.29Q83.30 48.29 83.06 48.07Q82.81 47.85 82.52 47.49Q82.23 47.12 81.74 46.78Q81.25 46.39 81.01 46.31Q80.76 46.24 80.66 45.56Q80.57 44.82 80.76 44.14Q80.96 43.46 81.25 43.02Q81.40 42.72 81.64 42.50Q81.88 42.29 82.03 42.04Q82.23 41.65 82.06 40.94Q81.88 40.23 82.13 39.70Q82.47 38.96 82.86 38.31Q83.25 37.65 83.30 36.67Q83.35 36.28 83.25 35.84Q83.15 35.40 83.25 35.01Q83.30 34.62 83.42 34.20Q83.54 33.79 83.69 33.25Q83.84 32.52 84.23 31.69Q84.62 30.86 84.86 29.88Q85.06 29.49 85.21 29.08Q85.35 28.66 85.50 28.27Q85.79 27.44 85.91 26.64Q86.04 25.83 86.28 25.05Q86.38 24.76 86.60 24.54Q86.82 24.32 86.91 24.07Q87.30 23.24 87.30 22.34Q87.30 21.44 87.50 20.46Q87.65 19.53 87.87 18.77Q88.09 18.02 88.23 17.36Q88.38 16.70 88.31 16.11Q88.23 15.53 87.79 14.89Q87.55 14.55 87.28 14.40Q87.01 14.26 86.96 14.01Q86.96 13.43 87.43 13.35Q87.89 13.28 88.48 13.43Q89.06 13.57 89.62 13.79Q90.19 14.01 90.33 14.06Q90.58 14.11 90.92 14.06Q91.26 14.01 91.65 14.11Q92.09 14.16 92.53 14.26Q92.97 14.36 93.31 14.40Q94.09 14.40 94.43 14.38Q94.78 14.36 95.51 14.31Q96.19 14.26 97.19 14.31Q98.19 14.36 98.93 14.26Q99.56 14.21 100.51 14.06Q101.46 13.92 102.37 13.82Q103.27 13.72 103.98 13.79Q104.69 13.87 104.79 14.31Q104.93 14.84 104.52 15.26Q104.10 15.67 104.00 16.11Q103.91 17.29 103.76 18.73Q103.61 20.17 103.76 21.14Q103.86 21.68 103.81 22.19Q103.76 22.71 103.91 23.10Q104.20 24.17 104.35 25.15Q104.39 25.73 104.81 26.25Q105.22 26.76 105.18 27.29Q105.13 27.98 105.44 28.69Q105.76 29.39 105.81 30.18Q105.91 30.96 105.93 31.79Q105.96 32.62 106.45 33.30Q106.93 32.91 107.06 32.32Q107.18 31.74 107.42 31.20Q107.52 30.96 107.74 30.74Q107.96 30.52 108.15 30.27Q108.69 29.15 109.50 27.91Q110.30 26.66 110.89 25.39Q111.52 24.17 112.11 22.92Q112.70 21.68 113.23 20.41Q113.33 20.21 113.60 19.97Q113.87 19.73 114.16 19.48Q114.45 19.24 114.72 19.02Q114.99 18.80 115.14 18.55Q115.87 17.19 116.38 16.19Q116.89 15.19 117.14 13.67Q118.02 13.62 118.82 13.72Q119.63 13.82 120.61 13.96Q121.00 14.06 121.31 14.21Q121.63 14.36 121.97 14.40Q122.66 14.50 123.07 14.45Q123.49 14.40 123.80 14.33Q124.12 14.26 124.44 14.23Q124.76 14.21 125.34 14.40Q127.00 14.40 128.76 14.16Q130.52 13.92 132.30 13.65Q134.08 13.38 135.86 13.18Q137.65 12.99 139.36 12.99ZM174.07 18.07Q173.97 17.82 174.02 17.72Q174.07 17.63 174.07 17.33Q173.54 17.04 173.02 17.19Q172.51 17.33 171.97 17.38Q171.44 17.38 170.73 17.24Q170.02 17.09 169.26 16.94Q168.51 16.80 167.72 16.72Q166.94 16.65 166.21 16.80Q165.82 16.89 165.09 17.26Q164.36 17.63 164.01 17.82Q162.89 18.51 162.40 19.82Q161.91 21.14 161.52 22.51Q161.33 22.71 161.11 22.85Q160.89 23.00 160.79 23.24Q160.79 23.58 161.06 23.78Q161.33 23.97 161.43 24.27Q161.72 25 161.96 25.73Q162.21 26.46 162.60 27.10Q163.23 28.08 164.38 28.66Q165.53 29.25 166.70 29.79Q167.53 30.22 168.14 30.44Q168.75 30.66 169.58 31.05Q170.07 31.30 170.46 31.40Q170.85 31.49 171.19 31.64Q171.53 31.79 171.83 32.01Q172.12 32.23 172.46 32.62Q172.75 32.91 173.02 33.20Q173.29 33.50 173.54 33.74Q174.07 34.28 174.29 34.74Q174.51 35.21 175.20 35.55Q175.29 36.04 175.63 36.35Q175.98 36.67 176.07 37.06Q176.17 37.60 175.93 37.99Q175.68 38.38 175.73 38.87Q175.78 39.31 176.05 39.58Q176.32 39.84 176.42 40.23Q176.51 40.63 176.42 41.11Q176.32 41.60 176.12 42.09Q175.88 42.82 175.76 43.51Q175.63 44.19 175.44 44.82Q175.24 45.46 174.90 46.02Q174.56 46.58 173.88 47.02Q173.68 47.12 173.46 47.19Q173.24 47.27 173.05 47.36Q172.80 47.46 172.66 47.61Q172.51 47.75 172.36 47.85Q172.17 47.95 171.95 48.00Q171.73 48.05 171.53 48.14Q171.24 48.29 171.00 48.51Q170.75 48.73 170.46 48.83Q169.97 49.07 169.73 49.49Q169.48 49.90 168.85 50.15Q168.31 50.39 167.97 50.78Q167.63 51.17 167.19 51.27Q166.46 51.42 165.67 51.22Q164.89 51.03 164.11 51.03Q163.33 50.98 162.50 51.10Q161.67 51.22 160.84 51.27Q159.96 51.37 158.96 51.49Q157.96 51.61 157.28 51.46Q156.69 51.37 155.76 51.15Q154.83 50.93 153.91 50.66Q152.98 50.39 152.17 50.07Q151.37 49.76 151.03 49.41Q150.78 49.17 150.61 48.80Q150.44 48.44 150.20 48.19Q149.66 47.66 148.93 47.14Q148.19 46.63 147.85 46.04Q147.71 45.75 147.63 45.43Q147.56 45.12 147.46 44.78Q147.36 44.43 147.17 44.14Q146.97 43.85 146.92 43.60Q146.88 43.31 147.02 43.09Q147.17 42.87 147.22 42.63Q147.31 42.09 147.34 41.55Q147.36 41.02 147.75 40.58Q148.19 40.48 148.97 40.09Q149.76 39.70 150.46 39.48Q151.17 39.26 151.59 39.36Q152.00 39.45 151.66 40.33Q152.15 40.63 152.34 41.09Q152.54 41.55 152.61 42.07Q152.69 42.58 152.76 43.16Q152.83 43.75 153.08 44.29Q153.32 44.87 154.08 45.26Q154.83 45.65 155.22 46.09Q155.96 46.04 156.59 46.24Q157.23 46.44 157.84 46.66Q158.45 46.88 159.11 47.05Q159.77 47.22 160.55 47.12Q160.84 47.07 161.16 46.61Q161.47 46.14 161.77 46.09Q163.04 45.80 164.11 45.75Q165.19 45.70 166.02 44.97Q166.65 44.43 167.02 43.95Q167.38 43.46 167.43 42.77Q167.48 41.99 167.26 41.53Q167.04 41.06 166.65 40.77Q166.26 40.48 165.75 40.23Q165.23 39.99 164.75 39.60Q164.45 39.40 164.18 39.16Q163.92 38.92 163.67 38.82Q162.70 38.38 161.55 38.06Q160.40 37.74 159.42 37.30Q158.94 37.06 158.59 36.43Q158.25 35.79 157.71 35.69Q157.47 35.60 157.18 35.69Q156.88 35.79 156.54 35.74Q156.15 35.69 155.49 35.30Q154.83 34.91 154.59 34.67Q154.44 34.52 154.35 34.25Q154.25 33.98 154.05 33.79Q153.71 33.35 153.32 33.01Q152.93 32.67 152.78 32.28Q152.69 31.98 152.66 31.74Q152.64 31.49 152.54 31.25Q152.44 31.05 152.29 30.91Q152.15 30.76 152.00 30.57Q151.90 30.32 151.90 30.05Q151.90 29.79 151.81 29.49Q151.51 28.61 151.22 27.95Q150.93 27.29 151.03 26.12Q151.07 25.34 150.95 24.90Q150.83 24.46 150.98 23.93Q151.07 23.54 151.17 23.22Q151.27 22.90 151.42 22.51Q151.51 22.17 151.54 21.83Q151.56 21.48 151.66 21.24Q151.81 21.00 152.08 20.70Q152.34 20.41 152.54 20.12Q153.08 19.29 153.61 18.43Q154.15 17.58 155.03 16.99Q155.42 16.21 156.45 15.41Q157.47 14.60 158.50 14.16Q159.62 13.62 160.99 13.01Q162.35 12.40 163.33 12.21Q164.06 12.06 164.75 12.06Q165.43 12.06 166.21 12.06Q167.43 12.01 168.12 12.06Q168.80 12.11 169.78 12.26Q170.17 12.35 170.63 12.40Q171.09 12.45 171.44 12.55Q171.68 12.65 171.83 12.77Q171.97 12.89 172.31 12.94Q172.85 12.99 173.41 12.82Q173.97 12.65 174.51 12.70Q175.49 12.79 176.10 13.18Q176.71 13.57 177.49 14.01Q177.93 14.26 178.37 14.45Q178.81 14.65 179.05 14.89Q179.35 15.19 179.64 15.72Q179.93 16.26 180.18 16.87Q180.42 17.48 180.59 18.12Q180.76 18.75 180.76 19.19Q180.76 19.43 180.71 19.63Q180.66 19.82 180.66 20.07Q180.71 20.46 180.96 20.95Q181.20 21.44 181.10 21.97Q181.05 22.36 180.74 22.58Q180.42 22.80 180.18 23.14Q179.98 23.44 179.88 23.80Q179.79 24.17 179.59 24.41Q179.35 24.76 179.13 25Q178.91 25.24 178.81 25.59Q178.32 26.12 177.32 26.54Q176.32 26.95 175.10 27.20Q173.88 27.44 172.63 27.44Q171.39 27.44 170.46 27.15Q170.21 27.05 170.00 26.86Q169.78 26.66 169.48 26.56Q169.19 26.46 168.87 26.42Q168.55 26.37 168.36 26.22Q168.07 26.03 167.50 25.32Q166.94 24.61 166.85 24.22Q166.65 23.88 166.67 23.46Q166.70 23.05 166.75 22.56Q166.85 22.12 166.92 21.46Q166.99 20.80 167.29 20.56Q167.38 20.46 167.72 20.31Q168.07 20.17 168.46 20.31Q168.85 20.41 169.14 20.85Q169.43 21.29 169.73 21.80Q170.02 22.31 170.34 22.78Q170.65 23.24 171.04 23.44Q171.63 23.78 172.49 23.80Q173.34 23.83 173.88 23.58Q174.80 23.29 175.27 22.61Q175.73 21.92 175.73 21.09Q175.73 20.26 175.32 19.46Q174.90 18.65 174.07 18.07ZM188.57 48.54Q187.60 48.54 187.13 48.95Q186.67 49.37 186.47 50Q185.89 49.85 185.13 49.95Q184.38 50.05 183.62 50.15Q182.86 50.24 182.15 50.27Q181.45 50.29 180.96 50Q180.71 49.85 180.57 49.58Q180.42 49.32 180.22 49.07Q180.03 48.78 179.81 48.54Q179.59 48.29 179.54 48.05Q179.44 47.75 179.69 47.19Q179.93 46.63 180.13 46.39Q180.32 46.24 180.59 46.14Q180.86 46.04 181.10 45.85Q181.79 45.31 182.10 44.51Q182.42 43.70 182.67 43.21Q183.01 42.97 183.47 42.70Q183.94 42.43 183.84 41.99Q183.40 41.75 182.81 41.77Q182.23 41.80 181.64 41.75Q180.66 41.75 179.69 41.60Q178.71 41.46 177.93 41.36Q176.66 41.11 175.71 40.19Q174.76 39.26 174.90 37.84Q175.24 37.70 175.66 37.70Q176.07 37.70 176.54 37.74Q177.00 37.79 177.47 37.82Q177.93 37.84 178.32 37.70Q178.76 37.99 179.13 37.99Q179.49 37.99 179.81 37.84Q180.13 37.70 180.42 37.52Q180.71 37.35 180.96 37.30Q181.20 37.26 181.40 37.30Q181.59 37.35 181.84 37.35Q182.23 37.35 182.62 37.23Q183.01 37.11 183.54 37.01Q184.28 36.91 185.06 36.89Q185.84 36.87 186.38 36.62Q186.72 36.47 187.16 36.11Q187.60 35.74 187.79 35.45Q187.89 35.21 187.87 34.99Q187.84 34.77 187.94 34.52Q188.18 33.69 188.79 33.06Q189.40 32.42 189.79 31.64Q189.94 31.25 190.01 31.05Q190.09 30.86 190.14 30.71Q190.19 30.57 190.26 30.37Q190.33 30.18 190.58 29.79Q191.02 29.10 191.48 28.47Q191.94 27.83 192.58 27.25Q192.58 26.95 192.68 26.73Q192.77 26.51 192.87 26.27Q194.19 25.73 195.02 24.85Q195.85 23.97 196.68 23.00Q196.63 22.51 196.88 22.29Q197.12 22.07 197.12 21.58Q197.12 21.34 196.95 21.02Q196.78 20.70 196.78 20.36Q196.78 19.97 197.09 19.56Q197.41 19.14 197.66 18.80Q198.05 18.41 198.27 18.02Q198.49 17.63 198.73 17.29Q199.12 16.85 199.54 16.50Q199.95 16.16 200.34 15.67Q200.54 15.38 200.66 15.01Q200.78 14.65 201.07 14.45Q201.51 14.16 202.29 14.11Q203.08 14.06 203.86 14.01Q204.79 13.96 205.88 13.79Q206.98 13.62 208.08 13.43Q209.18 13.23 210.23 13.06Q211.28 12.89 212.16 12.84Q213.04 12.74 213.84 12.79Q214.65 12.84 215.14 12.65Q215.82 13.23 216.53 13.79Q217.24 14.36 217.87 14.99Q218.07 15.97 218.21 16.80Q218.36 17.63 218.26 18.46Q218.16 18.85 217.94 19.19Q217.72 19.53 217.77 19.97Q217.77 20.70 218.21 21.41Q218.65 22.12 218.85 22.95Q218.90 23.34 218.73 23.71Q218.55 24.07 218.51 24.46Q218.46 24.85 218.55 25.32Q218.65 25.78 218.75 26.27Q218.75 26.86 218.70 27.44Q218.65 28.03 218.75 28.66Q218.85 29.30 218.99 29.96Q219.14 30.62 219.09 31.30Q218.99 31.98 218.82 32.57Q218.65 33.15 218.65 33.79Q218.60 34.67 218.75 35.47Q218.90 36.28 218.65 37.11Q219.04 37.60 219.07 38.09Q219.09 38.57 218.99 39.06Q218.90 39.55 218.80 40.06Q218.70 40.58 218.90 41.11Q218.99 41.46 219.29 41.72Q219.58 41.99 219.68 42.38Q219.82 42.87 219.85 43.58Q219.87 44.29 219.87 44.92Q219.92 46.48 219.60 47.71Q219.29 48.93 219.24 50.34Q219.24 50.98 219.21 51.76Q219.19 52.54 218.95 52.98Q218.70 53.27 218.16 53.59Q217.63 53.91 217.24 53.96Q216.50 54.00 215.55 53.56Q214.60 53.13 214.11 52.64Q213.67 52.15 213.31 51.56Q212.94 50.98 212.57 50.34Q212.21 49.71 211.82 49.15Q211.43 48.58 210.94 48.19Q210.69 48.05 210.40 47.90Q210.11 47.75 209.96 47.56Q209.67 47.07 209.64 46.46Q209.62 45.85 209.69 45.19Q209.77 44.53 209.84 43.90Q209.91 43.26 209.77 42.77Q209.62 42.29 209.38 42.02Q209.13 41.75 208.76 41.63Q208.40 41.50 207.93 41.48Q207.47 41.46 206.84 41.41Q204.54 41.26 202.10 41.11Q199.66 40.97 197.12 41.02Q196.58 41.02 196.34 41.06Q196.09 41.11 195.90 41.14Q195.70 41.16 195.51 41.21Q195.31 41.26 194.87 41.26Q193.90 41.31 193.12 41.38Q192.33 41.46 191.75 41.89Q191.41 42.14 191.02 42.87Q190.63 43.60 190.43 43.99Q190.19 44.58 190.01 45.21Q189.84 45.85 189.67 46.46Q189.50 47.07 189.26 47.61Q189.01 48.14 188.57 48.54M200.98 35.64Q202.64 35.60 204.17 35.57Q205.71 35.55 207.08 35.45Q207.28 35.35 207.45 35.30Q207.62 35.25 208.01 35.35Q208.01 35.11 208.25 35.08Q208.50 35.06 208.64 34.96Q208.84 34.62 208.84 34.40Q208.84 34.18 208.76 34.01Q208.69 33.84 208.57 33.62Q208.45 33.40 208.45 33.01Q208.45 32.62 208.57 32.20Q208.69 31.79 208.74 31.35Q208.79 31.01 208.67 30.62Q208.54 30.22 208.59 29.83Q208.64 29.49 208.89 29.22Q209.13 28.96 209.13 28.61Q209.13 28.42 209.06 28.17Q208.98 27.93 208.94 27.69Q208.89 27.34 208.91 27.00Q208.94 26.66 208.84 26.42Q208.74 26.03 208.35 25.68Q207.96 25.34 207.86 24.95Q207.71 24.46 207.84 23.85Q207.96 23.24 207.96 22.66Q207.91 21.83 207.81 21.14Q207.71 20.46 207.32 19.78Q206.79 19.48 206.52 19.56Q206.25 19.63 206.08 19.90Q205.91 20.17 205.79 20.51Q205.66 20.85 205.37 21.09Q204.05 22.27 203.32 23.46Q202.59 24.66 201.51 26.07Q201.07 26.61 200.61 27.15Q200.15 27.69 199.78 28.32Q199.41 28.96 199.22 29.64Q199.02 30.32 199.12 31.15Q198.88 31.54 198.71 31.71Q198.54 31.88 198.34 32.03Q198.14 32.18 197.92 32.37Q197.71 32.57 197.41 32.91Q196.88 33.59 196.24 34.30Q195.61 35.01 195.41 35.84Q196.29 36.08 196.92 36.08Q197.56 36.08 198.17 36.01Q198.78 35.94 199.44 35.82Q200.10 35.69 200.98 35.64ZM270.90 12.50Q270.46 13.33 269.85 13.79Q269.24 14.26 268.55 14.75Q267.97 15.28 267.24 15.70Q266.50 16.11 265.97 16.65Q264.94 17.77 264.18 19.41Q263.43 21.04 262.74 22.66Q262.55 23.05 262.23 23.44Q261.91 23.83 261.72 24.27Q261.18 25.59 260.82 27.05Q260.45 28.52 260.13 30.00Q259.81 31.49 259.47 33.01Q259.13 34.52 258.64 35.94Q258.40 36.18 258.06 36.35Q257.71 36.52 257.57 36.87Q257.62 37.11 257.79 37.33Q257.96 37.55 258.01 37.84Q258.06 38.23 257.89 38.62Q257.71 39.01 257.62 39.50Q257.37 40.92 256.86 42.60Q256.35 44.29 255.57 45.26Q255.13 46.73 254.76 48.24Q254.39 49.76 253.56 50.88Q253.13 51.03 252.76 51.27Q252.39 51.51 251.86 51.51Q251.61 51.51 251.34 51.37Q251.07 51.22 250.73 51.12Q250.34 51.03 249.85 50.95Q249.37 50.88 248.93 50.73Q248.49 50.63 248.07 50.49Q247.66 50.34 247.27 50.34Q246.83 50.34 246.09 50.34Q245.36 50.34 244.97 50.20Q244.82 49.71 244.56 49.29Q244.29 48.88 244.09 48.39Q243.90 47.95 243.65 47.41Q243.41 46.88 243.36 46.34Q243.31 46.09 243.41 45.80Q243.51 45.51 243.46 45.26Q243.36 44.87 243.07 44.48Q242.77 44.09 242.68 43.70Q242.63 43.46 242.68 43.19Q242.72 42.92 242.68 42.68Q242.63 42.33 242.46 42.14Q242.29 41.94 242.19 41.65Q242.09 41.50 242.14 41.33Q242.19 41.16 242.14 41.02Q242.04 40.67 241.82 40.36Q241.60 40.04 241.50 39.75Q241.31 38.96 241.33 38.11Q241.36 37.26 241.26 36.43Q241.16 35.74 240.94 35.08Q240.72 34.42 240.72 33.69Q240.72 33.30 240.87 33.01Q241.02 32.71 241.02 32.37Q241.06 31.98 240.92 31.69Q240.77 31.40 240.72 31.01Q240.58 30.66 240.26 30.52Q239.94 30.37 239.65 30.18Q239.26 28.76 238.57 26.93Q237.89 25.10 237.50 23.63Q237.50 23.54 237.43 23.90Q237.35 24.27 237.23 24.80Q237.11 25.34 236.91 25.93Q236.72 26.51 236.43 26.86Q236.82 27.54 236.47 28.52Q236.13 29.49 235.89 30.47Q235.55 31.88 235.25 33.33Q234.96 34.77 234.47 36.18Q234.38 36.52 234.23 36.77Q234.08 37.01 233.98 37.30Q233.84 37.79 233.84 38.33Q233.84 38.87 233.74 39.40Q233.64 39.94 233.57 40.43Q233.50 40.92 233.40 41.41Q233.25 42.29 233.08 43.36Q232.91 44.43 232.64 45.43Q232.37 46.44 231.93 47.24Q231.49 48.05 230.81 48.39Q230.27 48.73 229.86 48.63Q229.44 48.54 229.00 48.24Q228.76 48.29 228.71 48.56Q228.66 48.83 228.47 48.93Q227.78 48.88 227.34 49.15Q226.90 49.41 226.37 49.56Q226.22 49.61 226.05 49.58Q225.88 49.56 225.73 49.66Q225.29 49.80 224.95 50.05Q224.61 50.29 224.29 50.51Q223.97 50.73 223.63 50.88Q223.29 51.03 222.90 50.93Q222.31 50.78 222.05 50.29Q221.78 49.80 221.39 49.41Q221.48 48.73 221.70 47.90Q221.92 47.07 222.19 46.22Q222.46 45.36 222.75 44.56Q223.05 43.75 223.29 43.12Q223.44 42.58 223.61 42.09Q223.78 41.60 223.93 41.06Q224.07 40.58 224.32 40.11Q224.56 39.65 224.66 39.16Q224.76 38.62 224.71 38.11Q224.66 37.60 224.71 37.06Q224.80 36.57 225.05 35.99Q225.29 35.40 225.44 34.86Q225.93 33.20 226.46 31.67Q227.00 30.13 227.98 28.96Q227.98 28.27 228.17 27.69Q228.37 27.10 228.56 26.56Q228.76 26.03 228.81 25.51Q228.86 25 228.56 24.41Q228.76 23.54 229.08 22.73Q229.39 21.92 229.59 21.00Q229.64 20.75 229.61 20.46Q229.59 20.17 229.69 19.92Q229.79 19.48 230.05 18.97Q230.32 18.46 230.64 17.94Q230.96 17.43 231.23 16.94Q231.49 16.46 231.59 16.06Q232.13 15.97 232.62 15.84Q233.11 15.72 233.79 15.72Q234.08 15.72 234.38 15.80Q234.67 15.87 234.96 15.82Q235.50 15.72 235.77 15.33Q236.04 14.94 236.43 14.75Q237.11 14.65 237.77 14.62Q238.43 14.60 239.06 14.40Q239.36 14.31 239.82 14.16Q240.28 14.01 240.58 14.01Q241.16 14.01 241.53 14.45Q241.89 14.89 242.14 15.50Q242.38 16.11 242.58 16.72Q242.77 17.33 243.12 17.68Q243.12 19.14 243.26 20.34Q243.41 21.53 243.51 23.10Q243.70 24.76 244.04 26.15Q244.38 27.54 244.78 29.00Q244.92 29.64 245.00 30.27Q245.07 30.91 245.31 31.45Q245.70 32.42 246.12 33.25Q246.53 34.08 246.63 35.06Q246.78 36.18 246.73 37.18Q246.68 38.18 246.92 39.16Q247.17 39.94 247.46 40.43Q247.75 40.92 248.29 41.55Q248.83 40.87 248.93 40.09Q249.02 39.31 249.12 38.53Q249.27 37.70 249.51 36.94Q249.76 36.18 250 35.35Q250.24 34.18 250.66 32.91Q251.07 31.64 251.51 30.62Q251.61 30.32 251.86 29.98Q252.10 29.64 252.29 29.30Q252.59 28.76 252.42 28.05Q252.25 27.34 252.34 26.66Q252.44 26.17 252.61 25.61Q252.78 25.05 252.93 24.46Q253.27 23.05 253.34 21.44Q253.42 19.82 253.76 18.65Q253.91 18.26 254.15 17.58Q254.39 16.89 254.35 16.41Q254.35 16.02 254.08 15.82Q253.81 15.63 253.81 15.23Q253.81 14.84 254.17 14.55Q254.54 14.26 255.05 14.06Q255.57 13.87 256.13 13.77Q256.69 13.67 257.08 13.67Q257.52 13.67 257.89 13.77Q258.25 13.87 258.59 13.96Q258.94 14.06 259.35 14.14Q259.77 14.21 260.30 14.16Q261.13 14.06 262.16 13.94Q263.18 13.82 264.16 13.77Q264.65 13.72 265.11 13.70Q265.58 13.67 265.92 13.57Q266.41 13.43 266.89 13.26Q267.38 13.09 268.07 12.99Q268.65 12.89 269.21 12.72Q269.78 12.55 270.17 12.40Q270.31 12.30 270.48 12.28Q270.65 12.26 270.90 12.50ZM279.74 24.37Q279.49 24.46 279.15 24.49Q278.81 24.51 278.56 24.66Q278.47 25.05 278.39 25.44Q278.32 25.83 278.42 26.22Q277.93 27.34 277.22 28.47Q276.51 29.59 275.83 30.47Q275.34 32.23 274.93 33.72Q274.51 35.21 274.51 37.35Q274.41 37.60 274.32 37.89Q274.22 38.18 274.22 38.57Q274.22 38.87 274.39 39.11Q274.56 39.36 274.56 39.65Q274.66 40.09 274.44 40.53Q274.22 40.97 274.22 41.41Q274.22 41.75 274.37 41.99Q274.51 42.24 274.41 42.58Q275.05 43.26 275.71 43.65Q276.37 44.04 276.86 44.87Q277.00 44.87 277.32 45.07Q277.64 45.26 278.03 45.48Q278.42 45.70 278.88 45.92Q279.35 46.14 279.74 46.19Q280.32 46.24 280.76 46.17Q281.20 46.09 282.03 46.00Q284.18 45.75 285.84 44.63Q287.50 43.51 288.48 42.24Q288.48 41.26 288.67 40.58Q288.87 39.89 289.26 39.21Q289.50 38.82 289.79 38.57Q290.09 38.33 290.14 37.74Q290.19 37.45 290.16 37.08Q290.14 36.72 290.19 36.33Q290.23 35.94 289.99 35.57Q289.75 35.21 289.65 34.96Q289.55 34.57 288.92 34.08Q288.28 33.59 287.89 33.30Q287.55 33.06 287.16 32.76Q286.77 32.47 286.55 32.18Q286.33 31.88 286.38 31.57Q286.43 31.25 287.01 31.01Q288.04 31.05 289.21 31.20Q290.38 31.35 291.63 31.47Q292.87 31.59 294.09 31.69Q295.31 31.79 296.34 31.69Q297.02 31.64 297.41 31.57Q297.80 31.49 298.10 31.42Q298.39 31.35 298.75 31.25Q299.12 31.15 299.76 31.05Q300.15 31.01 300.42 31.05Q300.68 31.10 300.93 31.10Q301.27 31.01 301.61 30.83Q301.95 30.66 302.34 30.62Q302.83 30.57 303.20 30.62Q303.56 30.66 303.88 30.76Q304.20 30.86 304.59 30.96Q304.98 31.05 305.52 31.10Q306.40 31.20 306.86 31.30Q307.32 31.40 307.32 32.08Q307.32 32.52 307.01 32.71Q306.69 32.91 306.23 32.98Q305.76 33.06 305.25 33.08Q304.74 33.11 304.30 33.15Q303.81 33.25 303.56 33.37Q303.32 33.50 303.17 33.64Q303.03 33.79 302.91 33.96Q302.78 34.13 302.49 34.23Q302.20 34.33 301.95 34.45Q301.71 34.57 301.42 34.67Q300.78 34.91 300.54 35.45Q300.29 35.99 299.90 36.57Q299.51 37.01 299.49 37.33Q299.46 37.65 299.17 38.04Q298.68 38.77 298.24 39.94Q297.80 41.11 297.46 42.04Q296.88 43.65 296.66 45.43Q296.44 47.22 296.04 48.88Q295.90 49.41 295.87 50.02Q295.85 50.63 295.75 51.22Q295.61 51.61 295.43 52.03Q295.26 52.44 295.21 52.83Q295.12 53.27 295.17 53.69Q295.21 54.10 295.07 54.54Q294.82 54.64 294.51 54.74Q294.19 54.83 294.09 55.03Q293.85 55.37 293.85 56.08Q293.85 56.79 293.51 57.18Q293.31 57.42 292.85 57.64Q292.38 57.86 292.09 57.96Q291.70 58.06 291.24 57.91Q290.77 57.76 290.23 57.81Q289.55 57.86 289.06 58.30Q288.57 58.74 287.94 59.08Q287.55 59.33 286.84 59.52Q286.13 59.72 285.64 59.96Q285.30 60.16 284.99 60.35Q284.67 60.55 284.38 60.64Q284.08 60.74 283.79 60.69Q283.50 60.64 283.20 60.30Q282.96 59.47 283.18 58.89Q283.40 58.30 283.76 57.81Q284.13 57.32 284.52 56.84Q284.91 56.35 285.11 55.66Q285.35 54.83 285.42 54.13Q285.50 53.42 285.74 52.73Q286.13 51.90 286.72 51.22Q287.30 50.54 287.55 49.61Q286.72 49.95 285.77 50.42Q284.81 50.88 283.54 51.07Q283.35 51.12 283.15 51.10Q282.96 51.07 282.76 51.07Q282.32 51.17 281.93 51.29Q281.54 51.42 281.15 51.51Q280.62 51.56 280.35 51.49Q280.08 51.42 279.59 51.42Q278.52 51.46 277.83 51.61Q277.15 51.76 276.22 51.56Q275.68 51.46 275.07 51.17Q274.46 50.88 273.88 50.63Q273.29 50.39 272.66 50.20Q272.02 50 271.53 49.76Q270.70 49.37 269.90 48.83Q269.09 48.29 268.12 48.00Q267.14 46.73 266.21 44.92Q265.28 43.12 265.04 41.31Q264.99 40.87 265.04 40.41Q265.09 39.94 264.99 39.50Q264.89 39.26 264.72 39.01Q264.55 38.77 264.45 38.53Q264.31 38.18 264.18 37.55Q264.06 36.91 263.96 36.43Q263.72 34.38 264.01 32.35Q264.31 30.32 264.99 28.66Q265.04 28.52 265.19 28.39Q265.33 28.27 265.43 28.08Q265.53 27.83 265.53 27.61Q265.53 27.39 265.63 27.25Q265.92 26.71 266.11 26.12Q266.31 25.54 266.70 24.95Q267.09 24.22 267.48 23.44Q267.87 22.66 268.41 22.27Q268.75 22.07 269.12 21.92Q269.48 21.78 269.82 21.61Q270.17 21.44 270.43 21.17Q270.70 20.90 270.80 20.41Q270.85 20.12 270.70 19.85Q270.56 19.58 270.70 19.34Q272.22 17.48 274.61 16.16Q274.85 16.06 275.12 15.97Q275.39 15.87 275.63 15.77Q275.98 15.58 276.27 15.33Q276.56 15.09 277.00 14.99Q277.83 14.75 278.74 14.53Q279.64 14.31 280.62 14.16Q280.96 14.11 281.30 14.04Q281.64 13.96 281.93 13.87Q282.42 13.82 283.33 13.84Q284.23 13.87 285.23 13.92Q286.23 13.96 287.18 13.99Q288.13 14.01 288.67 13.92Q289.01 13.82 289.33 13.67Q289.65 13.53 290.04 13.48Q290.87 13.43 291.43 13.55Q291.99 13.67 293.02 13.77Q293.65 13.82 294.26 13.92Q294.87 14.01 295.56 14.06Q296.39 14.11 297.27 14.06Q298.14 14.01 298.97 14.01Q299.80 14.01 300.61 14.11Q301.42 14.21 302.05 14.11Q302.49 14.01 302.88 13.82Q303.27 13.62 303.71 13.67Q304.10 13.77 304.54 14.11Q304.98 14.45 304.98 14.84Q304.98 15.28 304.32 15.82Q303.66 16.36 303.22 16.55Q301.81 17.14 300.15 17.46Q298.49 17.77 296.53 17.92Q295.90 17.97 295.29 17.97Q294.68 17.97 294.14 18.07Q293.85 18.16 293.58 18.29Q293.31 18.41 293.07 18.51Q292.38 18.70 291.63 18.70Q290.87 18.70 290.14 18.80Q288.72 18.95 287.04 19.21Q285.35 19.48 284.42 20.21Q284.18 20.41 283.74 20.61Q283.30 20.80 282.86 21.02Q282.42 21.24 282.01 21.46Q281.59 21.68 281.40 21.92Q280.81 22.51 280.40 22.95Q279.98 23.39 279.74 24.37ZM345.41 13.96Q345.65 14.60 345.29 15.04Q344.92 15.48 344.43 15.72Q343.31 16.36 341.99 16.77Q340.67 17.19 339.55 17.87Q338.87 18.26 338.33 18.80Q337.79 19.34 336.96 19.63Q336.13 19.87 335.13 19.92Q334.13 19.97 333.06 20.07Q331.93 20.17 330.86 20.41Q329.79 20.65 328.91 20.56Q328.52 20.51 328.08 20.39Q327.64 20.26 327.25 20.21Q326.86 20.17 326.37 20.26Q325.88 20.36 325.44 20.41Q325.15 20.46 324.80 20.41Q324.46 20.36 324.07 20.41Q323.63 20.46 323.12 20.51Q322.61 20.56 322.12 20.68Q321.63 20.80 321.26 21.00Q320.90 21.19 320.75 21.53Q320.51 22.95 320.09 24.17Q319.68 25.39 319.24 26.61Q318.99 27.25 318.73 27.98Q318.46 28.71 318.75 29.39Q320.85 29.74 322.88 29.49Q324.90 29.25 326.81 29.39Q327.34 29.44 327.98 29.52Q328.61 29.59 329.15 29.69Q329.54 29.79 329.96 30.15Q330.37 30.52 330.81 30.62Q331.49 30.76 332.13 30.69Q332.76 30.62 333.35 30.71Q333.79 30.96 334.03 31.42Q334.28 31.88 334.77 32.18Q335.06 32.42 335.42 32.42Q335.79 32.42 336.08 32.71Q336.08 33.45 335.84 33.86Q335.60 34.28 335.21 34.42Q334.81 34.57 334.28 34.57Q333.74 34.57 333.11 34.52Q332.23 34.42 331.08 34.45Q329.93 34.47 328.96 34.52Q328.32 34.52 327.73 34.57Q327.15 34.62 326.66 34.52Q326.27 34.42 325.95 34.11Q325.63 33.79 325.15 33.74Q324.71 33.64 324.15 33.81Q323.58 33.98 323.05 34.08Q321.48 34.38 320.09 34.79Q318.70 35.21 317.29 35.50Q316.31 37.45 315.72 40.19Q315.63 40.77 315.53 41.36Q315.43 41.94 315.48 42.41Q315.53 42.87 315.82 43.16Q316.11 43.46 316.85 43.46Q317.48 43.46 318.24 43.36Q318.99 43.26 319.75 43.16Q320.51 43.07 321.31 43.04Q322.12 43.02 322.90 43.21Q323.34 43.31 323.78 43.65Q324.22 43.99 324.80 43.95Q325.20 43.90 325.54 43.53Q325.88 43.16 326.32 43.02Q326.90 42.77 327.64 42.75Q328.37 42.72 329.20 42.75Q330.03 42.77 330.88 42.85Q331.74 42.92 332.52 42.92Q333.89 42.92 335.47 43.02Q337.06 43.12 338.18 43.51Q338.62 44.14 338.28 44.78Q337.94 45.41 337.30 45.51Q336.72 46.34 336.04 46.68Q335.35 47.02 334.18 47.41Q333.30 47.66 332.67 48.05Q332.03 48.44 330.96 48.49Q329.54 48.49 328.13 48.46Q326.71 48.44 325.29 48.68Q324.32 48.88 323.41 49.12Q322.51 49.37 321.53 49.51Q319.09 49.90 316.82 50.44Q314.55 50.98 311.96 51.07Q311.43 51.12 310.89 51.22Q310.35 51.32 310.01 51.22Q309.62 51.17 309.38 50.83Q309.13 50.49 308.74 50.29Q308.40 50.20 308.11 50.15Q307.81 50.10 307.57 50Q307.28 49.85 307.03 49.54Q306.79 49.22 306.49 48.93Q306.20 48.58 305.88 48.29Q305.57 48.00 305.32 47.61Q304.88 46.78 304.57 45.75Q304.25 44.73 304.39 43.46Q304.49 42.58 304.98 41.72Q305.47 40.87 305.71 39.89Q305.91 39.06 305.91 38.28Q305.91 37.50 306.10 36.67Q306.79 35.94 307.06 35.11Q307.32 34.28 307.67 33.01Q307.76 32.57 307.96 32.08Q308.15 31.59 308.15 31.20Q308.20 30.76 308.03 30.35Q307.86 29.93 307.86 29.44Q307.86 28.91 308.15 28.17Q308.45 27.44 308.69 26.76Q308.94 25.98 309.06 25.24Q309.18 24.51 309.38 23.83Q309.47 23.49 309.64 23.22Q309.81 22.95 309.91 22.66Q310.06 22.02 310.16 21.29Q310.25 20.56 310.30 19.82Q310.35 19.09 310.28 18.41Q310.21 17.72 309.96 17.19Q309.77 16.89 309.28 16.41Q308.79 15.92 308.54 15.67Q308.30 15.48 307.96 15.33Q307.62 15.19 307.62 14.94Q307.57 14.65 307.76 14.50Q307.96 14.36 308.20 14.31Q308.45 14.26 308.74 14.28Q309.03 14.31 309.23 14.31Q310.79 14.50 312.26 14.67Q313.72 14.84 315.48 14.70Q315.87 14.65 316.46 14.58Q317.04 14.50 317.65 14.43Q318.26 14.36 318.82 14.31Q319.38 14.26 319.73 14.31Q319.87 14.36 320.04 14.45Q320.21 14.55 320.46 14.65Q321.39 14.99 322.61 15.16Q323.83 15.33 325.10 14.94Q327.00 15.19 329.10 14.89Q331.20 14.60 333.30 14.50Q333.84 14.45 334.38 14.58Q334.91 14.70 335.50 14.75Q336.33 14.84 337.28 14.79Q338.23 14.75 339.21 14.65Q340.04 14.55 340.94 14.53Q341.85 14.50 342.58 14.36Q343.21 14.26 343.92 14.04Q344.63 13.82 345.41 13.96ZM381.30 13.96Q381.54 14.60 381.18 15.04Q380.81 15.48 380.32 15.72Q379.20 16.36 377.88 16.77Q376.56 17.19 375.44 17.87Q374.76 18.26 374.22 18.80Q373.68 19.34 372.85 19.63Q372.02 19.87 371.02 19.92Q370.02 19.97 368.95 20.07Q367.82 20.17 366.75 20.41Q365.67 20.65 364.79 20.56Q364.40 20.51 363.96 20.39Q363.53 20.26 363.13 20.21Q362.74 20.17 362.26 20.26Q361.77 20.36 361.33 20.41Q361.04 20.46 360.69 20.41Q360.35 20.36 359.96 20.41Q359.52 20.46 359.01 20.51Q358.50 20.56 358.01 20.68Q357.52 20.80 357.15 21.00Q356.79 21.19 356.64 21.53Q356.40 22.95 355.98 24.17Q355.57 25.39 355.13 26.61Q354.88 27.25 354.61 27.98Q354.35 28.71 354.64 29.39Q356.74 29.74 358.76 29.49Q360.79 29.25 362.70 29.39Q363.23 29.44 363.87 29.52Q364.50 29.59 365.04 29.69Q365.43 29.79 365.84 30.15Q366.26 30.52 366.70 30.62Q367.38 30.76 368.02 30.69Q368.65 30.62 369.24 30.71Q369.68 30.96 369.92 31.42Q370.17 31.88 370.65 32.18Q370.95 32.42 371.31 32.42Q371.68 32.42 371.97 32.71Q371.97 33.45 371.73 33.86Q371.48 34.28 371.09 34.42Q370.70 34.57 370.17 34.57Q369.63 34.57 368.99 34.52Q368.12 34.42 366.97 34.45Q365.82 34.47 364.84 34.52Q364.21 34.52 363.62 34.57Q363.04 34.62 362.55 34.52Q362.16 34.42 361.84 34.11Q361.52 33.79 361.04 33.74Q360.60 33.64 360.03 33.81Q359.47 33.98 358.94 34.08Q357.37 34.38 355.98 34.79Q354.59 35.21 353.17 35.50Q352.20 37.45 351.61 40.19Q351.51 40.77 351.42 41.36Q351.32 41.94 351.37 42.41Q351.42 42.87 351.71 43.16Q352.00 43.46 352.73 43.46Q353.37 43.46 354.13 43.36Q354.88 43.26 355.64 43.16Q356.40 43.07 357.20 43.04Q358.01 43.02 358.79 43.21Q359.23 43.31 359.67 43.65Q360.11 43.99 360.69 43.95Q361.08 43.90 361.43 43.53Q361.77 43.16 362.21 43.02Q362.79 42.77 363.53 42.75Q364.26 42.72 365.09 42.75Q365.92 42.77 366.77 42.85Q367.63 42.92 368.41 42.92Q369.78 42.92 371.36 43.02Q372.95 43.12 374.07 43.51Q374.51 44.14 374.17 44.78Q373.83 45.41 373.19 45.51Q372.61 46.34 371.92 46.68Q371.24 47.02 370.07 47.41Q369.19 47.66 368.55 48.05Q367.92 48.44 366.85 48.49Q365.43 48.49 364.01 48.46Q362.60 48.44 361.18 48.68Q360.21 48.88 359.30 49.12Q358.40 49.37 357.42 49.51Q354.98 49.90 352.71 50.44Q350.44 50.98 347.85 51.07Q347.31 51.12 346.78 51.22Q346.24 51.32 345.90 51.22Q345.51 51.17 345.26 50.83Q345.02 50.49 344.63 50.29Q344.29 50.20 343.99 50.15Q343.70 50.10 343.46 50Q343.16 49.85 342.92 49.54Q342.68 49.22 342.38 48.93Q342.09 48.58 341.77 48.29Q341.46 48.00 341.21 47.61Q340.77 46.78 340.45 45.75Q340.14 44.73 340.28 43.46Q340.38 42.58 340.87 41.72Q341.36 40.87 341.60 39.89Q341.80 39.06 341.80 38.28Q341.80 37.50 341.99 36.67Q342.68 35.94 342.94 35.11Q343.21 34.28 343.55 33.01Q343.65 32.57 343.85 32.08Q344.04 31.59 344.04 31.20Q344.09 30.76 343.92 30.35Q343.75 29.93 343.75 29.44Q343.75 28.91 344.04 28.17Q344.34 27.44 344.58 26.76Q344.82 25.98 344.95 25.24Q345.07 24.51 345.26 23.83Q345.36 23.49 345.53 23.22Q345.70 22.95 345.80 22.66Q345.95 22.02 346.04 21.29Q346.14 20.56 346.19 19.82Q346.24 19.09 346.17 18.41Q346.09 17.72 345.85 17.19Q345.65 16.89 345.17 16.41Q344.68 15.92 344.43 15.67Q344.19 15.48 343.85 15.33Q343.51 15.19 343.51 14.94Q343.46 14.65 343.65 14.50Q343.85 14.36 344.09 14.31Q344.34 14.26 344.63 14.28Q344.92 14.31 345.12 14.31Q346.68 14.50 348.14 14.67Q349.61 14.84 351.37 14.70Q351.76 14.65 352.34 14.58Q352.93 14.50 353.54 14.43Q354.15 14.36 354.71 14.31Q355.27 14.26 355.62 14.31Q355.76 14.36 355.93 14.45Q356.10 14.55 356.35 14.65Q357.28 14.99 358.50 15.16Q359.72 15.33 360.99 14.94Q362.89 15.19 364.99 14.89Q367.09 14.60 369.19 14.50Q369.73 14.45 370.26 14.58Q370.80 14.70 371.39 14.75Q372.22 14.84 373.17 14.79Q374.12 14.75 375.10 14.65Q375.93 14.55 376.83 14.53Q377.73 14.50 378.47 14.36Q379.10 14.26 379.81 14.04Q380.52 13.82 381.30 13.96ZM410.69 12.74Q410.64 12.99 410.64 13.26Q410.64 13.53 410.60 13.77Q410.21 14.11 409.94 14.21Q409.67 14.31 409.47 14.70Q409.33 14.94 409.33 15.23Q409.33 15.53 409.18 15.77Q409.03 16.11 408.47 16.48Q407.91 16.85 407.67 16.94Q407.37 17.09 407.06 17.19Q406.74 17.29 406.45 17.43Q406.01 17.63 405.74 17.72Q405.47 17.82 405.18 17.85Q404.88 17.87 404.54 17.90Q404.20 17.92 403.66 18.02Q403.52 18.02 403.47 18.09Q403.42 18.16 403.27 18.26Q403.13 18.36 402.83 18.43Q402.54 18.51 401.95 18.55Q401.42 18.60 401.15 18.63Q400.88 18.65 400.29 18.75Q399.95 18.85 399.66 19.04Q399.37 19.24 399.02 19.38Q398.34 19.78 398.02 20.14Q397.71 20.51 397.51 20.80Q397.22 21.29 397.24 21.90Q397.27 22.51 397.02 23.19Q396.83 23.68 396.39 24.17Q395.95 24.66 395.75 25.20Q395.70 25.44 395.75 25.73Q395.80 26.03 395.75 26.37Q395.65 27.00 395.31 27.66Q394.97 28.32 394.73 29.05Q394.63 29.44 394.65 29.83Q394.68 30.22 394.58 30.62Q394.43 31.54 394.14 32.59Q393.85 33.64 393.60 34.67Q393.51 35.25 393.53 35.86Q393.55 36.47 393.41 36.91Q393.31 37.35 393.04 37.74Q392.77 38.13 392.55 38.55Q392.33 38.96 392.26 39.43Q392.19 39.89 392.48 40.43Q392.33 42.24 391.99 44.09Q391.65 45.95 391.11 47.66Q390.97 48.19 390.65 49.07Q390.33 49.95 390.04 50.20Q389.75 50.44 389.28 50.51Q388.82 50.59 388.35 50.49Q387.89 50.39 387.50 50.15Q387.11 49.90 386.96 49.56Q386.67 49.76 386.45 50.10Q386.23 50.44 385.84 50.63Q385.35 50.88 384.84 50.83Q384.33 50.78 383.79 51.03Q383.30 51.22 382.91 51.49Q382.52 51.76 382.13 51.86Q381.88 51.95 381.67 51.93Q381.45 51.90 381.25 52.00Q380.96 52.15 380.81 52.49Q380.66 52.83 380.37 53.03Q379.98 52.93 379.49 52.91Q379.00 52.88 378.76 52.64Q378.66 51.37 379.15 50.42Q379.64 49.46 379.88 48.54Q380.08 48.00 380.15 47.51Q380.22 47.02 380.32 46.39Q380.52 45.70 380.81 44.95Q381.10 44.19 381.25 43.41Q381.40 42.87 381.42 42.31Q381.45 41.75 381.64 41.21Q381.74 40.82 382.13 40.36Q382.52 39.89 382.71 39.36Q382.91 38.82 383.06 38.13Q383.20 37.45 383.45 36.82Q383.69 35.99 384.16 35.40Q384.62 34.81 384.57 34.08Q384.57 33.74 384.42 33.54Q384.28 33.35 384.28 33.11Q384.23 32.71 384.38 32.03Q384.52 31.35 384.67 30.81Q384.91 29.79 385.16 28.96Q385.40 28.13 385.64 27.29Q385.74 26.90 385.82 26.54Q385.89 26.17 385.99 25.88Q386.08 25.49 386.30 25.22Q386.52 24.95 386.62 24.66Q386.72 24.32 386.79 23.83Q386.87 23.34 387.01 22.90Q387.16 22.56 387.33 22.27Q387.50 21.97 387.55 21.68Q387.65 21.04 387.38 20.51Q387.11 19.97 387.11 19.38Q386.57 18.99 385.84 18.92Q385.11 18.85 384.42 18.90Q383.74 18.95 383.20 18.97Q382.67 18.99 381.98 19.04Q380.86 19.09 380.03 19.24Q379.20 19.38 378.44 19.53Q377.69 19.68 376.90 19.75Q376.12 19.82 375.15 19.78Q375.24 19.24 375.27 18.63Q375.29 18.02 375.44 17.63Q375.73 17.38 376.03 17.36Q376.32 17.33 376.66 17.29Q376.46 16.99 376.49 16.75Q376.51 16.50 376.59 16.28Q376.66 16.06 376.78 15.84Q376.90 15.63 376.95 15.43Q377.05 14.94 377.03 14.45Q377.00 13.96 377.44 13.67Q378.13 13.62 378.66 13.67Q379.20 13.72 379.69 13.79Q380.18 13.87 380.69 13.92Q381.20 13.96 381.88 13.92Q383.45 13.82 384.45 13.67Q385.45 13.53 386.91 13.48Q387.94 13.48 388.89 13.50Q389.84 13.53 390.67 13.62Q391.55 13.77 391.97 13.77Q392.38 13.77 392.72 13.75Q393.07 13.72 393.46 13.67Q393.85 13.62 394.63 13.62Q395.46 13.62 396.22 13.50Q396.97 13.38 397.80 13.43Q398.73 13.43 399.10 13.55Q399.46 13.67 399.71 13.77Q399.95 13.87 400.24 13.94Q400.54 14.01 401.32 13.92Q401.86 13.82 402.00 13.70Q402.15 13.57 402.69 13.48Q403.17 13.43 403.66 13.45Q404.15 13.48 404.69 13.43Q406.15 13.28 407.64 12.92Q409.13 12.55 410.69 12.74ZM422.31 13.38Q422.31 13.72 422.12 13.99Q421.92 14.26 421.68 14.48Q421.44 14.70 421.17 14.94Q420.90 15.19 420.75 15.48Q420.70 15.58 420.73 15.80Q420.75 16.02 420.65 16.16Q420.41 16.85 419.97 17.65Q419.53 18.46 419.19 19.29Q419.04 19.68 418.87 20.09Q418.70 20.51 418.46 20.90Q418.26 21.29 417.99 21.70Q417.72 22.12 417.68 22.41Q417.63 22.66 417.75 22.88Q417.87 23.10 417.87 23.34Q417.77 23.83 417.58 24.37Q417.38 24.90 417.29 25.44Q417.19 26.07 417.11 26.64Q417.04 27.20 416.89 27.69Q416.65 28.37 416.36 29.27Q416.06 30.18 415.92 31.15Q417.63 31.15 419.21 30.71Q420.80 30.27 422.22 29.79Q422.56 29.88 423.24 29.93Q423.93 29.98 424.68 29.98Q425.44 29.98 426.22 29.96Q427.00 29.93 427.59 29.83Q428.17 29.79 429.00 29.57Q429.83 29.35 430.08 29.05Q430.47 28.52 430.62 27.49Q430.76 26.46 431.01 25.54Q431.25 24.71 431.59 23.93Q431.93 23.14 432.13 22.41Q432.23 22.12 432.20 21.80Q432.18 21.48 432.28 21.19Q432.52 20.36 433.01 19.58Q433.50 18.80 433.64 18.26Q433.79 17.72 433.84 17.14Q433.89 16.55 433.96 16.02Q434.03 15.48 434.16 15.01Q434.28 14.55 434.62 14.21Q434.81 14.11 434.99 13.99Q435.16 13.87 435.35 13.72Q435.99 13.92 436.47 13.92Q436.96 13.92 437.43 13.84Q437.89 13.77 438.33 13.62Q438.77 13.48 439.36 13.33Q439.79 13.72 440.04 14.18Q440.28 14.65 440.97 14.70Q441.26 14.70 441.55 14.50Q441.85 14.31 442.24 14.21Q442.92 14.01 443.92 13.75Q444.92 13.48 445.65 13.48Q446.48 13.43 447.17 13.60Q447.85 13.77 448.68 13.53Q448.88 13.72 449.02 13.96Q449.17 14.21 449.02 14.70Q448.54 15.09 448.02 15.36Q447.51 15.63 447.00 15.89Q446.48 16.16 446.02 16.46Q445.56 16.75 445.17 17.19Q444.48 17.97 444.02 19.04Q443.55 20.12 443.02 21.09Q442.82 21.44 442.58 21.75Q442.33 22.07 442.24 22.31Q441.94 23.05 441.85 23.90Q441.75 24.76 441.55 25.59Q441.36 26.42 441.11 27.17Q440.87 27.93 440.77 28.76Q441.41 29.00 441.99 28.88Q442.58 28.76 443.36 28.81Q443.75 28.86 444.14 28.96Q444.53 29.05 445.02 29.10Q445.75 29.15 446.34 29.08Q446.92 29.00 447.61 29.05Q447.85 29.05 448.24 29.08Q448.63 29.10 449.00 29.20Q449.37 29.30 449.63 29.47Q449.90 29.64 449.90 29.93Q449.95 30.32 449.29 30.74Q448.63 31.15 448.19 31.35Q447.36 31.74 446.61 31.79Q445.85 31.84 444.78 32.08Q444.09 32.18 443.58 32.59Q443.07 33.01 442.24 33.15Q441.41 33.30 440.82 33.33Q440.23 33.35 439.26 33.45Q438.28 34.72 437.96 36.40Q437.65 38.09 437.40 39.79Q437.21 41.06 436.91 42.36Q436.62 43.65 436.23 44.78Q436.08 45.41 435.67 45.92Q435.25 46.44 434.86 47.17Q434.62 47.71 434.45 48.24Q434.28 48.78 433.98 49.12Q433.59 49.51 432.91 49.71Q432.23 49.90 431.79 50.20Q431.20 50.68 430.83 51.17Q430.47 51.66 429.79 52.05Q429.30 52.10 428.98 52.10Q428.66 52.10 428.42 52.05Q428.17 52.00 427.95 51.88Q427.73 51.76 427.44 51.51Q427.34 51.22 427.39 51.00Q427.44 50.78 427.34 50.44Q427.05 50.34 426.88 50.61Q426.71 50.88 426.32 50.88Q425.93 50.88 425.54 50.42Q425.15 49.95 425.20 49.51Q425.24 49.17 425.44 48.71Q425.63 48.24 425.73 47.71Q425.83 47.27 425.90 46.75Q425.98 46.24 426.12 45.80Q426.22 45.56 426.37 45.31Q426.51 45.07 426.56 44.78Q426.71 43.99 426.68 43.29Q426.66 42.58 426.81 41.89Q426.90 41.65 427.03 41.46Q427.15 41.26 427.25 41.02Q427.54 40.19 427.83 39.40Q428.13 38.62 428.37 37.84Q428.61 37.01 428.93 36.18Q429.25 35.35 429.10 34.57Q428.47 34.52 427.88 34.67Q427.29 34.81 426.71 35.01Q426.12 35.21 425.49 35.38Q424.85 35.55 424.17 35.55Q423.88 35.55 423.36 35.50Q422.85 35.45 422.27 35.40Q421.68 35.35 421.12 35.38Q420.56 35.40 420.21 35.45Q419.63 35.55 419.02 35.84Q418.41 36.13 417.72 36.33Q417.04 36.47 416.48 36.72Q415.92 36.96 415.33 37.06Q414.79 37.40 414.55 38.06Q414.31 38.72 414.14 39.45Q413.96 40.19 413.70 40.82Q413.43 41.46 412.79 41.70Q413.09 41.99 413.04 42.90Q412.99 43.80 412.84 44.58Q412.60 45.90 412.18 47.07Q411.77 48.24 411.23 49.17Q410.45 49.51 409.74 49.88Q409.03 50.24 408.06 50.34Q407.81 50.24 407.74 49.98Q407.67 49.71 407.62 49.41Q407.37 50 406.96 50.37Q406.54 50.73 406.05 51.03Q405.57 51.32 405.10 51.61Q404.64 51.90 404.35 52.39Q403.22 52.39 402.39 52.42Q401.56 52.44 400.78 52.05Q400.54 51.27 400.76 50.51Q400.98 49.76 401.07 49.07Q401.12 48.73 401.07 48.44Q401.03 48.14 401.07 47.85Q401.17 47.12 401.44 46.07Q401.71 45.02 402.05 44.24Q402.20 43.85 402.44 43.58Q402.69 43.31 402.88 42.92Q403.08 42.43 403.13 41.99Q403.17 41.55 403.37 41.16Q403.47 40.72 403.69 40.36Q403.91 39.99 404.00 39.60Q404.10 39.26 404.08 38.92Q404.05 38.57 404.15 38.18Q404.20 37.94 404.35 37.74Q404.49 37.55 404.54 37.30Q404.59 36.77 404.30 36.25Q404.00 35.74 403.76 35.25Q403.52 34.77 403.47 34.23Q403.42 33.69 403.96 33.11Q404.44 32.96 404.96 32.84Q405.47 32.71 405.81 32.47Q406.05 31.49 406.20 30.57Q406.35 29.64 406.59 28.71Q406.69 28.22 406.91 27.78Q407.13 27.34 407.23 26.95Q407.32 26.51 407.28 26.05Q407.23 25.59 407.37 25.20Q407.47 24.80 407.76 24.56Q408.06 24.32 408.20 23.93Q407.81 23.34 407.89 22.46Q407.96 21.58 408.23 20.61Q408.50 19.63 408.84 18.63Q409.18 17.63 409.33 16.70Q409.57 15.67 409.81 14.89Q410.06 14.11 410.99 13.92Q412.74 14.11 414.45 13.75Q416.16 13.38 417.87 12.94Q418.12 12.89 418.14 13.11Q418.16 13.33 418.36 13.38Q418.70 13.04 419.24 12.87Q419.78 12.70 420.34 12.72Q420.90 12.74 421.44 12.92Q421.97 13.09 422.31 13.38Z" />
</svg>