<!-- HI.svg -->
<svg xmlns="http://www.w3.org/2000/svg" viewBox="0.0375 12.035 302.996 48.672">
  <path class="line" d="M21.78 13.38Q21.78 13.72 21.58 13.99Q21.39 14.26 21.14 14.48Q20.90 14.70 20.63 14.94Q20.36 15.19 20.21 15.48Q20.17 15.58 20.19 15.80Q20.21 16.02 20.12 16.16Q19.87 16.85 19.43 17.65Q18.99 18.46 18.65 19.29Q18.51 19.68 18.33 20.09Q18.16 20.51 17.92 20.90Q17.72 21.29 17.46 21.70Q17.19 22.12 17.14 22.41Q17.09 22.66 17.21 22.88Q17.33 23.10 17.33 23.34Q17.24 23.83 17.04 24.37Q16.85 24.90 16.75 25.44Q16.65 26.07 16.58 26.64Q16.50 27.20 16.36 27.69Q16.11 28.37 15.82 29.27Q15.53 30.18 15.38 31.15Q17.09 31.15 18.68 30.71Q20.26 30.27 21.68 29.79Q22.02 29.88 22.71 29.93Q23.39 29.98 24.15 29.98Q24.90 29.98 25.68 29.96Q26.46 29.93 27.05 29.83Q27.64 29.79 28.47 29.57Q29.30 29.35 29.54 29.05Q29.93 28.52 30.08 27.49Q30.22 26.46 30.47 25.54Q30.71 24.71 31.05 23.93Q31.40 23.14 31.59 22.41Q31.69 22.12 31.67 21.80Q31.64 21.48 31.74 21.19Q31.98 20.36 32.47 19.58Q32.96 18.80 33.11 18.26Q33.25 17.72 33.30 17.14Q33.35 16.55 33.42 16.02Q33.50 15.48 33.62 15.01Q33.74 14.55 34.08 14.21Q34.28 14.11 34.45 13.99Q34.62 13.87 34.81 13.72Q35.45 13.92 35.94 13.92Q36.43 13.92 36.89 13.84Q37.35 13.77 37.79 13.62Q38.23 13.48 38.82 13.33Q39.26 13.72 39.50 14.18Q39.75 14.65 40.43 14.70Q40.72 14.70 41.02 14.50Q41.31 14.31 41.70 14.21Q42.38 14.01 43.38 13.75Q44.38 13.48 45.12 13.48Q45.95 13.43 46.63 13.60Q47.31 13.77 48.14 13.53Q48.34 13.72 48.49 13.96Q48.63 14.21 48.49 14.70Q48.00 15.09 47.49 15.36Q46.97 15.63 46.46 15.89Q45.95 16.16 45.48 16.46Q45.02 16.75 44.63 17.19Q43.95 17.97 43.48 19.04Q43.02 20.12 42.48 21.09Q42.29 21.44 42.04 21.75Q41.80 22.07 41.70 22.31Q41.41 23.05 41.31 23.90Q41.21 24.76 41.02 25.59Q40.82 26.42 40.58 27.17Q40.33 27.93 40.23 28.76Q40.87 29.00 41.46 28.88Q42.04 28.76 42.82 28.81Q43.21 28.86 43.60 28.96Q43.99 29.05 44.48 29.10Q45.21 29.15 45.80 29.08Q46.39 29.00 47.07 29.05Q47.31 29.05 47.71 29.08Q48.10 29.10 48.46 29.20Q48.83 29.30 49.10 29.47Q49.37 29.64 49.37 29.93Q49.41 30.32 48.75 30.74Q48.10 31.15 47.66 31.35Q46.83 31.74 46.07 31.79Q45.31 31.84 44.24 32.08Q43.55 32.18 43.04 32.59Q42.53 33.01 41.70 33.15Q40.87 33.30 40.28 33.33Q39.70 33.35 38.72 33.45Q37.74 34.72 37.43 36.40Q37.11 38.09 36.87 39.79Q36.67 41.06 36.38 42.36Q36.08 43.65 35.69 44.78Q35.55 45.41 35.13 45.92Q34.72 46.44 34.33 47.17Q34.08 47.71 33.91 48.24Q33.74 48.78 33.45 49.12Q33.06 49.51 32.37 49.71Q31.69 49.90 31.25 50.20Q30.66 50.68 30.30 51.17Q29.93 51.66 29.25 52.05Q28.76 52.10 28.44 52.10Q28.13 52.10 27.88 52.05Q27.64 52.00 27.42 51.88Q27.20 51.76 26.90 51.51Q26.81 51.22 26.86 51.00Q26.90 50.78 26.81 50.44Q26.51 50.34 26.34 50.61Q26.17 50.88 25.78 50.88Q25.39 50.88 25 50.42Q24.61 49.95 24.66 49.51Q24.71 49.17 24.90 48.71Q25.10 48.24 25.20 47.71Q25.29 47.27 25.37 46.75Q25.44 46.24 25.59 45.80Q25.68 45.56 25.83 45.31Q25.98 45.07 26.03 44.78Q26.17 43.99 26.15 43.29Q26.12 42.58 26.27 41.89Q26.37 41.65 26.49 41.46Q26.61 41.26 26.71 41.02Q27.00 40.19 27.29 39.40Q27.59 38.62 27.83 37.84Q28.08 37.01 28.39 36.18Q28.71 35.35 28.56 34.57Q27.93 34.52 27.34 34.67Q26.76 34.81 26.17 35.01Q25.59 35.21 24.95 35.38Q24.32 35.55 23.63 35.55Q23.34 35.55 22.83 35.50Q22.31 35.45 21.73 35.40Q21.14 35.35 20.58 35.38Q20.02 35.40 19.68 35.45Q19.09 35.55 18.48 35.84Q17.87 36.13 17.19 36.33Q16.50 36.47 15.94 36.72Q15.38 36.96 14.79 37.06Q14.26 37.40 14.01 38.06Q13.77 38.72 13.60 39.45Q13.43 40.19 13.16 40.82Q12.89 41.46 12.26 41.70Q12.55 41.99 12.50 42.90Q12.45 43.80 12.30 44.58Q12.06 45.90 11.65 47.07Q11.23 48.24 10.69 49.17Q9.91 49.51 9.20 49.88Q8.50 50.24 7.52 50.34Q7.28 50.24 7.20 49.98Q7.13 49.71 7.08 49.41Q6.84 50 6.42 50.37Q6.01 50.73 5.52 51.03Q5.03 51.32 4.57 51.61Q4.10 51.90 3.81 52.39Q2.69 52.39 1.86 52.42Q1.03 52.44 0.24 52.05Q0 51.27 0.22 50.51Q0.44 49.76 0.54 49.07Q0.59 48.73 0.54 48.44Q0.49 48.14 0.54 47.85Q0.63 47.12 0.90 46.07Q1.17 45.02 1.51 44.24Q1.66 43.85 1.90 43.58Q2.15 43.31 2.34 42.92Q2.54 42.43 2.59 41.99Q2.64 41.55 2.83 41.16Q2.93 40.72 3.15 40.36Q3.37 39.99 3.47 39.60Q3.56 39.26 3.54 38.92Q3.52 38.57 3.61 38.18Q3.66 37.94 3.81 37.74Q3.96 37.55 4.00 37.30Q4.05 36.77 3.76 36.25Q3.47 35.74 3.22 35.25Q2.98 34.77 2.93 34.23Q2.88 33.69 3.42 33.11Q3.91 32.96 4.42 32.84Q4.93 32.71 5.27 32.47Q5.52 31.49 5.66 30.57Q5.81 29.64 6.05 28.71Q6.15 28.22 6.37 27.78Q6.59 27.34 6.69 26.95Q6.79 26.51 6.74 26.05Q6.69 25.59 6.84 25.20Q6.93 24.80 7.23 24.56Q7.52 24.32 7.67 23.93Q7.28 23.34 7.35 22.46Q7.42 21.58 7.69 20.61Q7.96 19.63 8.30 18.63Q8.64 17.63 8.79 16.70Q9.03 15.67 9.28 14.89Q9.52 14.11 10.45 13.92Q12.21 14.11 13.92 13.75Q15.63 13.38 17.33 12.94Q17.58 12.89 17.60 13.11Q17.63 13.33 17.82 13.38Q18.16 13.04 18.70 12.87Q19.24 12.70 19.80 12.72Q20.36 12.74 20.90 12.92Q21.44 13.09 21.78 13.38ZM45.85 47.27Q45.95 46.14 46.61 45.24Q47.27 44.34 47.61 43.36Q47.80 42.72 47.88 42.02Q47.95 41.31 47.97 40.60Q48.00 39.89 48.10 39.18Q48.19 38.48 48.44 37.79Q48.19 37.35 48.24 36.82Q48.29 36.28 48.29 35.69Q48.54 35.35 48.68 34.91Q48.83 34.47 49.37 34.33Q49.85 33.25 49.85 32.10Q49.85 30.96 50.10 29.74Q50.15 29.49 50.29 29.30Q50.44 29.10 50.54 28.86Q50.88 27.83 50.88 26.68Q50.88 25.54 51.27 24.51Q51.56 24.41 52.00 24.19Q52.44 23.97 52.91 23.75Q53.37 23.54 53.81 23.39Q54.25 23.24 54.59 23.29Q54.83 23.39 55.08 23.56Q55.32 23.73 55.66 23.97Q55.91 24.12 56.13 24.32Q56.35 24.51 56.59 24.66Q56.79 24.76 57.10 24.83Q57.42 24.90 57.52 25Q57.57 25.05 57.84 25.34Q58.11 25.63 58.37 25.98Q58.64 26.32 58.89 26.64Q59.13 26.95 59.18 27.05Q59.23 27.34 59.13 27.71Q59.03 28.08 58.86 28.44Q58.69 28.81 58.52 29.17Q58.35 29.54 58.25 29.83Q58.11 30.37 57.96 30.88Q57.81 31.40 57.57 31.93Q57.32 32.57 57.03 33.40Q56.74 34.23 56.64 35.16Q56.54 35.84 56.13 36.18Q55.71 36.52 55.57 37.16Q55.47 37.60 55.47 38.09Q55.47 38.57 55.49 39.04Q55.52 39.50 55.49 39.94Q55.47 40.38 55.27 40.77Q55.13 41.02 54.83 41.14Q54.54 41.26 54.35 41.50Q54.05 41.99 53.83 42.72Q53.61 43.46 53.47 44.26Q53.32 45.07 53.34 45.87Q53.37 46.68 53.61 47.31Q53.37 48.10 52.76 48.68Q52.15 49.27 51.32 49.58Q50.49 49.90 49.54 49.93Q48.58 49.95 47.61 49.61Q47.22 49.02 46.68 48.51Q46.14 48.00 45.85 47.27ZM88.72 12.89Q88.96 13.28 89.01 13.79Q89.06 14.31 89.16 14.79Q89.36 15.53 89.79 16.06Q90.23 16.60 90.09 17.58Q89.99 18.41 89.43 19.24Q88.87 20.07 88.72 21.00Q88.62 21.73 88.72 22.41Q88.82 23.10 88.72 23.78Q88.67 24.32 88.28 24.90Q87.89 25.49 87.55 26.12Q86.91 27.34 86.55 28.52Q86.18 29.69 85.74 31.10Q85.50 31.79 85.30 32.52Q85.11 33.25 85.11 33.84Q85.11 34.18 85.21 34.45Q85.30 34.72 85.25 34.96Q85.21 35.25 84.91 35.60Q84.62 35.94 84.38 36.33Q84.03 36.62 83.81 36.96Q83.59 37.30 83.35 37.55Q82.76 38.38 82.50 39.09Q82.23 39.79 81.74 40.33Q81.54 40.63 81.05 40.94Q80.57 41.26 80.32 41.26Q80.13 41.26 79.79 41.11Q79.44 40.97 79.10 40.75Q78.76 40.53 78.49 40.31Q78.22 40.09 78.17 39.94Q77.88 39.31 78.22 38.50Q78.56 37.70 78.76 36.96Q78.86 36.62 78.81 36.21Q78.76 35.79 78.86 35.55Q78.96 34.96 79.20 34.52Q79.44 34.08 79.44 33.40Q79.39 32.81 79.20 32.35Q79.00 31.88 78.76 31.25Q78.91 29.79 79.47 28.42Q80.03 27.05 80.27 25.68Q80.32 25.54 80.30 25.37Q80.27 25.20 80.32 25.05Q80.42 24.80 80.57 24.56Q80.71 24.32 80.76 24.07Q80.81 23.78 80.74 23.49Q80.66 23.19 80.66 22.95Q80.76 22.46 80.98 22.00Q81.20 21.53 81.40 21.00Q81.59 20.51 81.71 19.87Q81.84 19.24 82.03 18.65Q82.23 18.12 82.42 17.53Q82.62 16.94 82.71 16.41Q82.81 15.72 82.86 15.19Q82.91 14.65 83.30 14.11Q83.84 13.82 84.30 13.35Q84.77 12.89 85.16 12.45Q86.13 12.30 87.04 12.50Q87.94 12.70 88.72 12.89M78.17 42.87Q78.96 42.82 79.74 43.07Q80.52 43.31 81.15 43.75Q81.79 44.19 82.18 44.80Q82.57 45.41 82.57 46.19Q82.57 46.53 82.45 47.02Q82.32 47.51 82.13 48.00Q81.93 48.49 81.71 48.93Q81.49 49.37 81.30 49.56Q81.15 49.76 80.69 50.07Q80.22 50.39 79.93 50.44Q79.25 50.63 78.39 50.61Q77.54 50.59 76.76 50.37Q75.98 50.15 75.42 49.73Q74.85 49.32 74.71 48.68Q74.66 48.44 74.63 48.12Q74.61 47.80 74.71 47.56Q74.76 47.41 74.88 47.29Q75 47.17 75.05 46.97Q75.10 46.68 75.02 46.29Q74.95 45.90 75.05 45.56Q75.10 45.41 75.27 45.19Q75.44 44.97 75.63 44.70Q75.83 44.43 76.03 44.21Q76.22 43.99 76.37 43.90Q76.76 43.55 77.22 43.33Q77.69 43.12 78.17 42.87Z" />
</svg>