<!-- IAM.svg -->
<svg xmlns="http://www.w3.org/2000/svg" viewBox="0.0375 12.035 302.996 48.672">
  <path class="line" d="M17.92 49.95Q16.85 49.66 15.67 49.71Q14.50 49.76 13.38 49.66Q12.84 49.56 12.28 49.37Q11.72 49.17 11.13 49.07Q8.79 48.63 7.06 48.88Q5.32 49.12 3.47 49.71Q3.08 49.85 2.66 50.02Q2.25 50.20 1.81 50.34Q1.37 50.49 0.90 50.51Q0.44 50.54 0 50.29Q0.15 49.66 0.56 49.22Q0.98 48.78 1.49 48.36Q2.00 47.95 2.47 47.46Q2.93 46.97 3.13 46.29Q3.27 45.75 3.22 45.24Q3.17 44.73 3.27 44.14Q3.37 43.26 3.69 42.16Q4.00 41.06 4.35 40.09Q4.69 39.06 4.98 38.06Q5.27 37.06 5.57 36.18Q5.76 35.69 6.23 35.23Q6.69 34.77 6.79 34.03Q6.84 33.64 6.71 33.28Q6.59 32.91 6.64 32.67Q6.69 32.32 6.88 32.03Q7.08 31.74 7.18 31.40Q7.28 31.15 7.32 30.86Q7.37 30.57 7.47 30.32Q7.71 29.44 7.96 28.34Q8.20 27.25 8.45 26.32Q8.69 25.49 9.11 24.80Q9.52 24.12 9.67 23.39Q9.67 23.05 9.45 22.92Q9.23 22.80 9.13 22.46Q9.38 21.92 9.33 21.02Q9.28 20.12 9.33 19.38Q9.42 18.51 9.55 17.85Q9.67 17.19 9.33 16.46Q9.08 15.92 8.69 15.48Q8.30 15.04 8.45 14.26Q9.03 14.11 9.59 14.04Q10.16 13.96 10.84 14.01Q11.18 14.06 11.47 14.21Q11.77 14.36 12.16 14.45Q13.28 14.60 14.38 14.48Q15.48 14.36 16.50 14.36Q17.53 14.36 18.02 14.40Q18.51 14.45 19.38 14.36Q20.51 14.26 21.58 13.89Q22.66 13.53 23.68 13.38Q24.17 13.28 24.85 13.38Q25.54 13.48 25.98 13.87Q26.07 14.60 25.61 14.79Q25.15 14.99 24.76 15.19Q23.97 15.58 23.54 16.11Q23.10 16.65 22.56 17.33Q22.22 17.77 21.95 18.07Q21.68 18.36 21.44 18.90Q21.34 19.14 21.31 19.51Q21.29 19.87 21.14 20.17Q20.75 21.24 20.09 22.31Q19.43 23.39 19.19 24.32Q19.09 24.80 19.07 25.24Q19.04 25.68 18.95 26.17Q18.75 26.81 18.41 27.56Q18.07 28.32 17.77 29.10Q17.38 30.08 16.92 31.27Q16.46 32.47 16.11 33.59Q15.92 34.33 15.80 35.08Q15.67 35.84 15.53 36.62Q15.43 37.35 15.38 38.18Q15.33 39.01 15.09 39.65Q14.89 40.14 14.43 40.48Q13.96 40.82 13.72 41.36Q13.82 41.55 13.99 41.65Q14.16 41.75 14.11 42.04Q13.96 42.33 13.82 42.70Q13.67 43.07 13.72 43.46Q13.82 43.95 14.18 44.36Q14.55 44.78 14.65 45.17Q14.75 45.46 14.70 45.70Q14.65 45.95 14.75 46.19Q14.89 46.73 15.31 47.22Q15.72 47.71 16.11 47.95Q16.70 48.34 17.36 48.54Q18.02 48.73 18.31 49.41L17.92 49.95ZM46.63 48.54Q45.65 48.54 45.19 48.95Q44.73 49.37 44.53 50Q43.95 49.85 43.19 49.95Q42.43 50.05 41.67 50.15Q40.92 50.24 40.21 50.27Q39.50 50.29 39.01 50Q38.77 49.85 38.62 49.58Q38.48 49.32 38.28 49.07Q38.09 48.78 37.87 48.54Q37.65 48.29 37.60 48.05Q37.50 47.75 37.74 47.19Q37.99 46.63 38.18 46.39Q38.38 46.24 38.65 46.14Q38.92 46.04 39.16 45.85Q39.84 45.31 40.16 44.51Q40.48 43.70 40.72 43.21Q41.06 42.97 41.53 42.70Q41.99 42.43 41.89 41.99Q41.46 41.75 40.87 41.77Q40.28 41.80 39.70 41.75Q38.72 41.75 37.74 41.60Q36.77 41.46 35.99 41.36Q34.72 41.11 33.76 40.19Q32.81 39.26 32.96 37.84Q33.30 37.70 33.72 37.70Q34.13 37.70 34.59 37.74Q35.06 37.79 35.52 37.82Q35.99 37.84 36.38 37.70Q36.82 37.99 37.18 37.99Q37.55 37.99 37.87 37.84Q38.18 37.70 38.48 37.52Q38.77 37.35 39.01 37.30Q39.26 37.26 39.45 37.30Q39.65 37.35 39.89 37.35Q40.28 37.35 40.67 37.23Q41.06 37.11 41.60 37.01Q42.33 36.91 43.12 36.89Q43.90 36.87 44.43 36.62Q44.78 36.47 45.21 36.11Q45.65 35.74 45.85 35.45Q45.95 35.21 45.92 34.99Q45.90 34.77 46.00 34.52Q46.24 33.69 46.85 33.06Q47.46 32.42 47.85 31.64Q48.00 31.25 48.07 31.05Q48.14 30.86 48.19 30.71Q48.24 30.57 48.32 30.37Q48.39 30.18 48.63 29.79Q49.07 29.10 49.54 28.47Q50 27.83 50.63 27.25Q50.63 26.95 50.73 26.73Q50.83 26.51 50.93 26.27Q52.25 25.73 53.08 24.85Q53.91 23.97 54.74 23.00Q54.69 22.51 54.93 22.29Q55.18 22.07 55.18 21.58Q55.18 21.34 55.00 21.02Q54.83 20.70 54.83 20.36Q54.83 19.97 55.15 19.56Q55.47 19.14 55.71 18.80Q56.10 18.41 56.32 18.02Q56.54 17.63 56.79 17.29Q57.18 16.85 57.59 16.50Q58.01 16.16 58.40 15.67Q58.59 15.38 58.72 15.01Q58.84 14.65 59.13 14.45Q59.57 14.16 60.35 14.11Q61.13 14.06 61.91 14.01Q62.84 13.96 63.94 13.79Q65.04 13.62 66.14 13.43Q67.24 13.23 68.29 13.06Q69.34 12.89 70.21 12.84Q71.09 12.74 71.90 12.79Q72.71 12.84 73.19 12.65Q73.88 13.23 74.58 13.79Q75.29 14.36 75.93 14.99Q76.12 15.97 76.27 16.80Q76.42 17.63 76.32 18.46Q76.22 18.85 76.00 19.19Q75.78 19.53 75.83 19.97Q75.83 20.70 76.27 21.41Q76.71 22.12 76.90 22.95Q76.95 23.34 76.78 23.71Q76.61 24.07 76.56 24.46Q76.51 24.85 76.61 25.32Q76.71 25.78 76.81 26.27Q76.81 26.86 76.76 27.44Q76.71 28.03 76.81 28.66Q76.90 29.30 77.05 29.96Q77.20 30.62 77.15 31.30Q77.05 31.98 76.88 32.57Q76.71 33.15 76.71 33.79Q76.66 34.67 76.81 35.47Q76.95 36.28 76.71 37.11Q77.10 37.60 77.12 38.09Q77.15 38.57 77.05 39.06Q76.95 39.55 76.86 40.06Q76.76 40.58 76.95 41.11Q77.05 41.46 77.34 41.72Q77.64 41.99 77.73 42.38Q77.88 42.87 77.91 43.58Q77.93 44.29 77.93 44.92Q77.98 46.48 77.66 47.71Q77.34 48.93 77.29 50.34Q77.29 50.98 77.27 51.76Q77.25 52.54 77.00 52.98Q76.76 53.27 76.22 53.59Q75.68 53.91 75.29 53.96Q74.56 54.00 73.61 53.56Q72.66 53.13 72.17 52.64Q71.73 52.15 71.36 51.56Q71.00 50.98 70.63 50.34Q70.26 49.71 69.87 49.15Q69.48 48.58 68.99 48.19Q68.75 48.05 68.46 47.90Q68.16 47.75 68.02 47.56Q67.72 47.07 67.70 46.46Q67.68 45.85 67.75 45.19Q67.82 44.53 67.90 43.90Q67.97 43.26 67.82 42.77Q67.68 42.29 67.43 42.02Q67.19 41.75 66.82 41.63Q66.46 41.50 65.99 41.48Q65.53 41.46 64.89 41.41Q62.60 41.26 60.16 41.11Q57.71 40.97 55.18 41.02Q54.64 41.02 54.39 41.06Q54.15 41.11 53.96 41.14Q53.76 41.16 53.56 41.21Q53.37 41.26 52.93 41.26Q51.95 41.31 51.17 41.38Q50.39 41.46 49.80 41.89Q49.46 42.14 49.07 42.87Q48.68 43.60 48.49 43.99Q48.24 44.58 48.07 45.21Q47.90 45.85 47.73 46.46Q47.56 47.07 47.31 47.61Q47.07 48.14 46.63 48.54M59.03 35.64Q60.69 35.60 62.23 35.57Q63.77 35.55 65.14 35.45Q65.33 35.35 65.50 35.30Q65.67 35.25 66.06 35.35Q66.06 35.11 66.31 35.08Q66.55 35.06 66.70 34.96Q66.89 34.62 66.89 34.40Q66.89 34.18 66.82 34.01Q66.75 33.84 66.63 33.62Q66.50 33.40 66.50 33.01Q66.50 32.62 66.63 32.20Q66.75 31.79 66.80 31.35Q66.85 31.01 66.72 30.62Q66.60 30.22 66.65 29.83Q66.70 29.49 66.94 29.22Q67.19 28.96 67.19 28.61Q67.19 28.42 67.11 28.17Q67.04 27.93 66.99 27.69Q66.94 27.34 66.97 27.00Q66.99 26.66 66.89 26.42Q66.80 26.03 66.41 25.68Q66.02 25.34 65.92 24.95Q65.77 24.46 65.89 23.85Q66.02 23.24 66.02 22.66Q65.97 21.83 65.87 21.14Q65.77 20.46 65.38 19.78Q64.84 19.48 64.58 19.56Q64.31 19.63 64.14 19.90Q63.96 20.17 63.84 20.51Q63.72 20.85 63.43 21.09Q62.11 22.27 61.38 23.46Q60.64 24.66 59.57 26.07Q59.13 26.61 58.67 27.15Q58.20 27.69 57.84 28.32Q57.47 28.96 57.28 29.64Q57.08 30.32 57.18 31.15Q56.93 31.54 56.76 31.71Q56.59 31.88 56.40 32.03Q56.20 32.18 55.98 32.37Q55.76 32.57 55.47 32.91Q54.93 33.59 54.30 34.30Q53.66 35.01 53.47 35.84Q54.35 36.08 54.98 36.08Q55.62 36.08 56.23 36.01Q56.84 35.94 57.50 35.82Q58.15 35.69 59.03 35.64ZM139.36 12.99Q139.70 13.57 139.70 14.11Q138.57 14.40 137.72 14.77Q136.87 15.14 136.18 15.60Q135.50 16.06 134.94 16.72Q134.38 17.38 133.84 18.26Q133.54 18.70 133.18 18.95Q132.81 19.19 132.57 19.68Q132.23 20.31 132.03 21.07Q131.84 21.83 131.64 22.61Q131.54 22.85 131.45 23.12Q131.35 23.39 131.25 23.63Q131.15 24.17 131.20 24.66Q131.25 25.15 131.05 25.63Q130.91 26.03 130.66 26.27Q130.42 26.51 130.27 26.81Q129.88 27.49 129.76 28.32Q129.64 29.15 129.54 30.08Q129.49 30.37 129.37 30.62Q129.25 30.86 129.15 31.15Q129.05 31.54 129.00 31.91Q128.96 32.28 128.86 32.67Q128.52 33.64 128.15 34.64Q127.78 35.64 127.64 36.62Q127.54 37.16 127.56 37.67Q127.59 38.18 127.49 38.72Q127.25 40.14 126.81 41.43Q126.37 42.72 125.98 43.95Q125.73 44.82 125.61 45.58Q125.49 46.34 125.20 47.17Q125 47.61 124.90 47.97Q124.80 48.34 124.51 48.68Q124.22 49.02 123.68 49.22Q123.14 49.41 122.56 49.56Q121.97 49.71 121.41 49.83Q120.85 49.95 120.41 50.10Q119.97 50.29 119.68 50.66Q119.38 51.03 119.04 51.34Q118.70 51.66 118.29 51.78Q117.87 51.90 117.19 51.61Q117.14 51.03 117.16 50.29Q117.19 49.56 117.29 48.97Q117.43 48.14 117.80 47.51Q118.16 46.88 118.51 46.14Q119.04 44.87 119.19 43.70Q119.34 42.53 119.82 41.26Q120.26 40.97 120.41 40.63Q120.56 40.28 120.58 39.87Q120.61 39.45 120.56 38.96Q120.51 38.48 120.61 37.89Q120.65 37.30 120.90 36.72Q121.14 36.13 121.24 35.50Q121.34 34.96 121.36 34.64Q121.39 34.33 121.41 34.08Q121.44 33.84 121.51 33.57Q121.58 33.30 121.73 32.86Q121.92 32.42 122.17 31.98Q122.41 31.54 122.61 31.05Q123.00 29.79 123.19 28.37Q123.39 26.95 123.58 25.59Q123.68 24.76 123.90 23.73Q124.12 22.71 124.02 21.88Q123.83 21.88 123.32 22.46Q122.80 23.05 122.09 24.00Q121.39 24.95 120.53 26.15Q119.68 27.34 118.87 28.59Q118.07 29.83 117.36 30.93Q116.65 32.03 116.21 32.81Q115.48 33.25 115.11 33.81Q114.75 34.38 114.50 35.01Q114.26 35.64 114.01 36.35Q113.77 37.06 113.28 37.79Q112.89 39.31 111.96 40.77Q111.04 42.24 110.45 43.65Q110.30 44.04 110.18 44.36Q110.06 44.68 109.81 45.07Q109.42 46.04 108.91 46.95Q108.40 47.85 107.86 48.83Q107.28 49.80 106.54 50.63Q106.25 51.03 106.08 51.66Q105.91 52.29 105.57 52.39Q105.13 52.49 104.64 52.27Q104.15 52.05 103.71 51.95Q102.83 50.68 102.69 49.41Q102.69 49.07 102.78 48.75Q102.88 48.44 102.83 48.14Q102.78 47.61 102.39 46.95Q102.00 46.29 101.90 45.61Q101.71 44.78 101.90 44.02Q102.10 43.26 101.90 42.63Q101.81 42.33 101.54 42.11Q101.27 41.89 101.17 41.65Q101.07 41.31 101.10 40.87Q101.12 40.43 101.07 39.99Q100.93 39.16 100.61 38.13Q100.29 37.11 100.05 36.08Q99.80 35.35 99.39 34.38Q98.97 33.40 98.88 32.52Q98.83 32.03 98.80 31.62Q98.78 31.20 98.73 30.81Q98.63 29.93 98.29 28.91Q97.95 27.88 97.58 26.86Q97.22 25.83 96.95 24.80Q96.68 23.78 96.68 22.80Q96.44 22.90 96.24 23.24Q96.04 23.58 95.85 24.07Q95.65 24.56 95.51 25.05Q95.36 25.54 95.26 25.83Q95.12 26.07 94.87 26.37Q94.63 26.66 94.58 27.05Q94.53 27.25 94.65 27.49Q94.78 27.73 94.78 28.03Q94.82 28.81 94.48 29.66Q94.14 30.52 93.90 31.35Q93.65 32.32 93.51 33.37Q93.36 34.42 92.92 35.55Q92.53 36.62 92.31 37.72Q92.09 38.82 91.85 39.70Q91.75 40.33 91.75 40.97Q91.75 41.60 91.55 41.99Q91.31 42.48 90.75 42.77Q90.19 43.07 90.04 43.60Q89.99 44.63 89.60 45.95Q89.21 47.27 88.92 48.39Q88.82 48.83 88.77 49.29Q88.72 49.76 88.60 50.12Q88.48 50.49 88.21 50.76Q87.94 51.03 87.40 51.07Q86.47 51.17 85.57 50.63Q84.67 50.10 84.47 49.51Q84.38 49.12 84.47 48.71Q84.57 48.29 84.57 47.90Q83.94 48.29 83.62 48.29Q83.30 48.29 83.06 48.07Q82.81 47.85 82.52 47.49Q82.23 47.12 81.74 46.78Q81.25 46.39 81.01 46.31Q80.76 46.24 80.66 45.56Q80.57 44.82 80.76 44.14Q80.96 43.46 81.25 43.02Q81.40 42.72 81.64 42.50Q81.88 42.29 82.03 42.04Q82.23 41.65 82.06 40.94Q81.88 40.23 82.13 39.70Q82.47 38.96 82.86 38.31Q83.25 37.65 83.30 36.67Q83.35 36.28 83.25 35.84Q83.15 35.40 83.25 35.01Q83.30 34.62 83.42 34.20Q83.54 33.79 83.69 33.25Q83.84 32.52 84.23 31.69Q84.62 30.86 84.86 29.88Q85.06 29.49 85.21 29.08Q85.35 28.66 85.50 28.27Q85.79 27.44 85.91 26.64Q86.04 25.83 86.28 25.05Q86.38 24.76 86.60 24.54Q86.82 24.32 86.91 24.07Q87.30 23.24 87.30 22.34Q87.30 21.44 87.50 20.46Q87.65 19.53 87.87 18.77Q88.09 18.02 88.23 17.36Q88.38 16.70 88.31 16.11Q88.23 15.53 87.79 14.89Q87.55 14.55 87.28 14.40Q87.01 14.26 86.96 14.01Q86.96 13.43 87.43 13.35Q87.89 13.28 88.48 13.43Q89.06 13.57 89.62 13.79Q90.19 14.01 90.33 14.06Q90.58 14.11 90.92 14.06Q91.26 14.01 91.65 14.11Q92.09 14.16 92.53 14.26Q92.97 14.36 93.31 14.40Q94.09 14.40 94.43 14.38Q94.78 14.36 95.51 14.31Q96.19 14.26 97.19 14.31Q98.19 14.36 98.93 14.26Q99.56 14.21 100.51 14.06Q101.46 13.92 102.37 13.82Q103.27 13.72 103.98 13.79Q104.69 13.87 104.79 14.31Q104.93 14.84 104.52 15.26Q104.10 15.67 104.00 16.11Q103.91 17.29 103.76 18.73Q103.61 20.17 103.76 21.14Q103.86 21.68 103.81 22.19Q103.76 22.71 103.91 23.10Q104.20 24.17 104.35 25.15Q104.39 25.73 104.81 26.25Q105.22 26.76 105.18 27.29Q105.13 27.98 105.44 28.69Q105.76 29.39 105.81 30.18Q105.91 30.96 105.93 31.79Q105.96 32.62 106.45 33.30Q106.93 32.91 107.06 32.32Q107.18 31.74 107.42 31.20Q107.52 30.96 107.74 30.74Q107.96 30.52 108.15 30.27Q108.69 29.15 109.50 27.91Q110.30 26.66 110.89 25.39Q111.52 24.17 112.11 22.92Q112.70 21.68 113.23 20.41Q113.33 20.21 113.60 19.97Q113.87 19.73 114.16 19.48Q114.45 19.24 114.72 19.02Q114.99 18.80 115.14 18.55Q115.87 17.19 116.38 16.19Q116.89 15.19 117.14 13.67Q118.02 13.62 118.82 13.72Q119.63 13.82 120.61 13.96Q121.00 14.06 121.31 14.21Q121.63 14.36 121.97 14.40Q122.66 14.50 123.07 14.45Q123.49 14.40 123.80 14.33Q124.12 14.26 124.44 14.23Q124.76 14.21 125.34 14.40Q127.00 14.40 128.76 14.16Q130.52 13.92 132.30 13.65Q134.08 13.38 135.86 13.18Q137.65 12.99 139.36 12.99Z" />
</svg>
