<!-- sangeeth.svg -->
<svg xmlns="http://www.w3.org/2000/svg" viewBox="0.0375 12.035 302.996 48.672">
  <path class="line" d="M27.20 18.07Q27.10 17.82 27.15 17.72Q27.20 17.63 27.20 17.33Q26.66 17.04 26.15 17.19Q25.63 17.33 25.10 17.38Q24.56 17.38 23.85 17.24Q23.14 17.09 22.39 16.94Q21.63 16.80 20.85 16.72Q20.07 16.65 19.34 16.80Q18.95 16.89 18.21 17.26Q17.48 17.63 17.14 17.82Q16.02 18.51 15.53 19.82Q15.04 21.14 14.65 22.51Q14.45 22.71 14.23 22.85Q14.01 23.00 13.92 23.24Q13.92 23.58 14.18 23.78Q14.45 23.97 14.55 24.27Q14.84 25 15.09 25.73Q15.33 26.46 15.72 27.10Q16.36 28.08 17.50 28.66Q18.65 29.25 19.82 29.79Q20.65 30.22 21.26 30.44Q21.88 30.66 22.71 31.05Q23.19 31.30 23.58 31.40Q23.97 31.49 24.32 31.64Q24.66 31.79 24.95 32.01Q25.24 32.23 25.59 32.62Q25.88 32.91 26.15 33.20Q26.42 33.50 26.66 33.74Q27.20 34.28 27.42 34.74Q27.64 35.21 28.32 35.55Q28.42 36.04 28.76 36.35Q29.10 36.67 29.20 37.06Q29.30 37.60 29.05 37.99Q28.81 38.38 28.86 38.87Q28.91 39.31 29.17 39.58Q29.44 39.84 29.54 40.23Q29.64 40.63 29.54 41.11Q29.44 41.60 29.25 42.09Q29.00 42.82 28.88 43.51Q28.76 44.19 28.56 44.82Q28.37 45.46 28.03 46.02Q27.69 46.58 27.00 47.02Q26.81 47.12 26.59 47.19Q26.37 47.27 26.17 47.36Q25.93 47.46 25.78 47.61Q25.63 47.75 25.49 47.85Q25.29 47.95 25.07 48.00Q24.85 48.05 24.66 48.14Q24.37 48.29 24.12 48.51Q23.88 48.73 23.58 48.83Q23.10 49.07 22.85 49.49Q22.61 49.90 21.97 50.15Q21.44 50.39 21.09 50.78Q20.75 51.17 20.31 51.27Q19.58 51.42 18.80 51.22Q18.02 51.03 17.24 51.03Q16.46 50.98 15.63 51.10Q14.79 51.22 13.96 51.27Q13.09 51.37 12.08 51.49Q11.08 51.61 10.40 51.46Q9.81 51.37 8.89 51.15Q7.96 50.93 7.03 50.66Q6.10 50.39 5.30 50.07Q4.49 49.76 4.15 49.41Q3.91 49.17 3.74 48.80Q3.56 48.44 3.32 48.19Q2.78 47.66 2.05 47.14Q1.32 46.63 0.98 46.04Q0.83 45.75 0.76 45.43Q0.68 45.12 0.59 44.78Q0.49 44.43 0.29 44.14Q0.10 43.85 0.05 43.60Q0 43.31 0.15 43.09Q0.29 42.87 0.34 42.63Q0.44 42.09 0.46 41.55Q0.49 41.02 0.88 40.58Q1.32 40.48 2.10 40.09Q2.88 39.70 3.59 39.48Q4.30 39.26 4.71 39.36Q5.13 39.45 4.79 40.33Q5.27 40.63 5.47 41.09Q5.66 41.55 5.74 42.07Q5.81 42.58 5.88 43.16Q5.96 43.75 6.20 44.29Q6.45 44.87 7.20 45.26Q7.96 45.65 8.35 46.09Q9.08 46.04 9.72 46.24Q10.35 46.44 10.96 46.66Q11.57 46.88 12.23 47.05Q12.89 47.22 13.67 47.12Q13.96 47.07 14.28 46.61Q14.60 46.14 14.89 46.09Q16.16 45.80 17.24 45.75Q18.31 45.70 19.14 44.97Q19.78 44.43 20.14 43.95Q20.51 43.46 20.56 42.77Q20.61 41.99 20.39 41.53Q20.17 41.06 19.78 40.77Q19.38 40.48 18.87 40.23Q18.36 39.99 17.87 39.60Q17.58 39.40 17.31 39.16Q17.04 38.92 16.80 38.82Q15.82 38.38 14.67 38.06Q13.53 37.74 12.55 37.30Q12.06 37.06 11.72 36.43Q11.38 35.79 10.84 35.69Q10.60 35.60 10.30 35.69Q10.01 35.79 9.67 35.74Q9.28 35.69 8.62 35.30Q7.96 34.91 7.71 34.67Q7.57 34.52 7.47 34.25Q7.37 33.98 7.18 33.79Q6.84 33.35 6.45 33.01Q6.05 32.67 5.91 32.28Q5.81 31.98 5.79 31.74Q5.76 31.49 5.66 31.25Q5.57 31.05 5.42 30.91Q5.27 30.76 5.13 30.57Q5.03 30.32 5.03 30.05Q5.03 29.79 4.93 29.49Q4.64 28.61 4.35 27.95Q4.05 27.29 4.15 26.12Q4.20 25.34 4.08 24.90Q3.96 24.46 4.10 23.93Q4.20 23.54 4.30 23.22Q4.39 22.90 4.54 22.51Q4.64 22.17 4.66 21.83Q4.69 21.48 4.79 21.24Q4.93 21.00 5.20 20.70Q5.47 20.41 5.66 20.12Q6.20 19.29 6.74 18.43Q7.28 17.58 8.15 16.99Q8.54 16.21 9.57 15.41Q10.60 14.60 11.62 14.16Q12.74 13.62 14.11 13.01Q15.48 12.40 16.46 12.21Q17.19 12.06 17.87 12.06Q18.55 12.06 19.34 12.06Q20.56 12.01 21.24 12.06Q21.92 12.11 22.90 12.26Q23.29 12.35 23.75 12.40Q24.22 12.45 24.56 12.55Q24.80 12.65 24.95 12.77Q25.10 12.89 25.44 12.94Q25.98 12.99 26.54 12.82Q27.10 12.65 27.64 12.70Q28.61 12.79 29.22 13.18Q29.83 13.57 30.62 14.01Q31.05 14.26 31.49 14.45Q31.93 14.65 32.18 14.89Q32.47 15.19 32.76 15.72Q33.06 16.26 33.30 16.87Q33.54 17.48 33.72 18.12Q33.89 18.75 33.89 19.19Q33.89 19.43 33.84 19.63Q33.79 19.82 33.79 20.07Q33.84 20.46 34.08 20.95Q34.33 21.44 34.23 21.97Q34.18 22.36 33.86 22.58Q33.54 22.80 33.30 23.14Q33.11 23.44 33.01 23.80Q32.91 24.17 32.71 24.41Q32.47 24.76 32.25 25Q32.03 25.24 31.93 25.59Q31.45 26.12 30.44 26.54Q29.44 26.95 28.22 27.20Q27.00 27.44 25.76 27.44Q24.51 27.44 23.58 27.15Q23.34 27.05 23.12 26.86Q22.90 26.66 22.61 26.56Q22.31 26.46 22.00 26.42Q21.68 26.37 21.48 26.22Q21.19 26.03 20.63 25.32Q20.07 24.61 19.97 24.22Q19.78 23.88 19.80 23.46Q19.82 23.05 19.87 22.56Q19.97 22.12 20.04 21.46Q20.12 20.80 20.41 20.56Q20.51 20.46 20.85 20.31Q21.19 20.17 21.58 20.31Q21.97 20.41 22.27 20.85Q22.56 21.29 22.85 21.80Q23.14 22.31 23.46 22.78Q23.78 23.24 24.17 23.44Q24.76 23.78 25.61 23.80Q26.46 23.83 27.00 23.58Q27.93 23.29 28.39 22.61Q28.86 21.92 28.86 21.09Q28.86 20.26 28.44 19.46Q28.03 18.65 27.20 18.07ZM41.70 48.54Q40.72 48.54 40.26 48.95Q39.79 49.37 39.60 50Q39.01 49.85 38.26 49.95Q37.50 50.05 36.74 50.15Q35.99 50.24 35.28 50.27Q34.57 50.29 34.08 50Q33.84 49.85 33.69 49.58Q33.54 49.32 33.35 49.07Q33.15 48.78 32.93 48.54Q32.71 48.29 32.67 48.05Q32.57 47.75 32.81 47.19Q33.06 46.63 33.25 46.39Q33.45 46.24 33.72 46.14Q33.98 46.04 34.23 45.85Q34.91 45.31 35.23 44.51Q35.55 43.70 35.79 43.21Q36.13 42.97 36.60 42.70Q37.06 42.43 36.96 41.99Q36.52 41.75 35.94 41.77Q35.35 41.80 34.77 41.75Q33.79 41.75 32.81 41.60Q31.84 41.46 31.05 41.36Q29.79 41.11 28.83 40.19Q27.88 39.26 28.03 37.84Q28.37 37.70 28.78 37.70Q29.20 37.70 29.66 37.74Q30.13 37.79 30.59 37.82Q31.05 37.84 31.45 37.70Q31.88 37.99 32.25 37.99Q32.62 37.99 32.93 37.84Q33.25 37.70 33.54 37.52Q33.84 37.35 34.08 37.30Q34.33 37.26 34.52 37.30Q34.72 37.35 34.96 37.35Q35.35 37.35 35.74 37.23Q36.13 37.11 36.67 37.01Q37.40 36.91 38.18 36.89Q38.96 36.87 39.50 36.62Q39.84 36.47 40.28 36.11Q40.72 35.74 40.92 35.45Q41.02 35.21 40.99 34.99Q40.97 34.77 41.06 34.52Q41.31 33.69 41.92 33.06Q42.53 32.42 42.92 31.64Q43.07 31.25 43.14 31.05Q43.21 30.86 43.26 30.71Q43.31 30.57 43.38 30.37Q43.46 30.18 43.70 29.79Q44.14 29.10 44.60 28.47Q45.07 27.83 45.70 27.25Q45.70 26.95 45.80 26.73Q45.90 26.51 46.00 26.27Q47.31 25.73 48.14 24.85Q48.97 23.97 49.80 23.00Q49.76 22.51 50 22.29Q50.24 22.07 50.24 21.58Q50.24 21.34 50.07 21.02Q49.90 20.70 49.90 20.36Q49.90 19.97 50.22 19.56Q50.54 19.14 50.78 18.80Q51.17 18.41 51.39 18.02Q51.61 17.63 51.86 17.29Q52.25 16.85 52.66 16.50Q53.08 16.16 53.47 15.67Q53.66 15.38 53.78 15.01Q53.91 14.65 54.20 14.45Q54.64 14.16 55.42 14.11Q56.20 14.06 56.98 14.01Q57.91 13.96 59.01 13.79Q60.11 13.62 61.21 13.43Q62.30 13.23 63.35 13.06Q64.40 12.89 65.28 12.84Q66.16 12.74 66.97 12.79Q67.77 12.84 68.26 12.65Q68.95 13.23 69.65 13.79Q70.36 14.36 71.00 14.99Q71.19 15.97 71.34 16.80Q71.48 17.63 71.39 18.46Q71.29 18.85 71.07 19.19Q70.85 19.53 70.90 19.97Q70.90 20.70 71.34 21.41Q71.78 22.12 71.97 22.95Q72.02 23.34 71.85 23.71Q71.68 24.07 71.63 24.46Q71.58 24.85 71.68 25.32Q71.78 25.78 71.88 26.27Q71.88 26.86 71.83 27.44Q71.78 28.03 71.88 28.66Q71.97 29.30 72.12 29.96Q72.27 30.62 72.22 31.30Q72.12 31.98 71.95 32.57Q71.78 33.15 71.78 33.79Q71.73 34.67 71.88 35.47Q72.02 36.28 71.78 37.11Q72.17 37.60 72.19 38.09Q72.22 38.57 72.12 39.06Q72.02 39.55 71.92 40.06Q71.83 40.58 72.02 41.11Q72.12 41.46 72.41 41.72Q72.71 41.99 72.80 42.38Q72.95 42.87 72.97 43.58Q73.00 44.29 73.00 44.92Q73.05 46.48 72.73 47.71Q72.41 48.93 72.36 50.34Q72.36 50.98 72.34 51.76Q72.31 52.54 72.07 52.98Q71.83 53.27 71.29 53.59Q70.75 53.91 70.36 53.96Q69.63 54.00 68.68 53.56Q67.72 53.13 67.24 52.64Q66.80 52.15 66.43 51.56Q66.06 50.98 65.70 50.34Q65.33 49.71 64.94 49.15Q64.55 48.58 64.06 48.19Q63.82 48.05 63.53 47.90Q63.23 47.75 63.09 47.56Q62.79 47.07 62.77 46.46Q62.74 45.85 62.82 45.19Q62.89 44.53 62.96 43.90Q63.04 43.26 62.89 42.77Q62.74 42.29 62.50 42.02Q62.26 41.75 61.89 41.63Q61.52 41.50 61.06 41.48Q60.60 41.46 59.96 41.41Q57.67 41.26 55.22 41.11Q52.78 40.97 50.24 41.02Q49.71 41.02 49.46 41.06Q49.22 41.11 49.02 41.14Q48.83 41.16 48.63 41.21Q48.44 41.26 48.00 41.26Q47.02 41.31 46.24 41.38Q45.46 41.46 44.87 41.89Q44.53 42.14 44.14 42.87Q43.75 43.60 43.55 43.99Q43.31 44.58 43.14 45.21Q42.97 45.85 42.80 46.46Q42.63 47.07 42.38 47.61Q42.14 48.14 41.70 48.54M54.10 35.64Q55.76 35.60 57.30 35.57Q58.84 35.55 60.21 35.45Q60.40 35.35 60.57 35.30Q60.74 35.25 61.13 35.35Q61.13 35.11 61.38 35.08Q61.62 35.06 61.77 34.96Q61.96 34.62 61.96 34.40Q61.96 34.18 61.89 34.01Q61.82 33.84 61.69 33.62Q61.57 33.40 61.57 33.01Q61.57 32.62 61.69 32.20Q61.82 31.79 61.87 31.35Q61.91 31.01 61.79 30.62Q61.67 30.22 61.72 29.83Q61.77 29.49 62.01 29.22Q62.26 28.96 62.26 28.61Q62.26 28.42 62.18 28.17Q62.11 27.93 62.06 27.69Q62.01 27.34 62.04 27.00Q62.06 26.66 61.96 26.42Q61.87 26.03 61.47 25.68Q61.08 25.34 60.99 24.95Q60.84 24.46 60.96 23.85Q61.08 23.24 61.08 22.66Q61.04 21.83 60.94 21.14Q60.84 20.46 60.45 19.78Q59.91 19.48 59.64 19.56Q59.38 19.63 59.20 19.90Q59.03 20.17 58.91 20.51Q58.79 20.85 58.50 21.09Q57.18 22.27 56.45 23.46Q55.71 24.66 54.64 26.07Q54.20 26.61 53.74 27.15Q53.27 27.69 52.91 28.32Q52.54 28.96 52.34 29.64Q52.15 30.32 52.25 31.15Q52.00 31.54 51.83 31.71Q51.66 31.88 51.46 32.03Q51.27 32.18 51.05 32.37Q50.83 32.57 50.54 32.91Q50 33.59 49.37 34.30Q48.73 35.01 48.54 35.84Q49.41 36.08 50.05 36.08Q50.68 36.08 51.29 36.01Q51.90 35.94 52.56 35.82Q53.22 35.69 54.10 35.64ZM124.02 12.50Q123.58 13.33 122.97 13.79Q122.36 14.26 121.68 14.75Q121.09 15.28 120.36 15.70Q119.63 16.11 119.09 16.65Q118.07 17.77 117.31 19.41Q116.55 21.04 115.87 22.66Q115.67 23.05 115.36 23.44Q115.04 23.83 114.84 24.27Q114.31 25.59 113.94 27.05Q113.57 28.52 113.26 30.00Q112.94 31.49 112.60 33.01Q112.26 34.52 111.77 35.94Q111.52 36.18 111.18 36.35Q110.84 36.52 110.69 36.87Q110.74 37.11 110.91 37.33Q111.08 37.55 111.13 37.84Q111.18 38.23 111.01 38.62Q110.84 39.01 110.74 39.50Q110.50 40.92 109.99 42.60Q109.47 44.29 108.69 45.26Q108.25 46.73 107.89 48.24Q107.52 49.76 106.69 50.88Q106.25 51.03 105.88 51.27Q105.52 51.51 104.98 51.51Q104.74 51.51 104.47 51.37Q104.20 51.22 103.86 51.12Q103.47 51.03 102.98 50.95Q102.49 50.88 102.05 50.73Q101.61 50.63 101.20 50.49Q100.78 50.34 100.39 50.34Q99.95 50.34 99.22 50.34Q98.49 50.34 98.10 50.20Q97.95 49.71 97.68 49.29Q97.41 48.88 97.22 48.39Q97.02 47.95 96.78 47.41Q96.53 46.88 96.48 46.34Q96.44 46.09 96.53 45.80Q96.63 45.51 96.58 45.26Q96.48 44.87 96.19 44.48Q95.90 44.09 95.80 43.70Q95.75 43.46 95.80 43.19Q95.85 42.92 95.80 42.68Q95.75 42.33 95.58 42.14Q95.41 41.94 95.31 41.65Q95.21 41.50 95.26 41.33Q95.31 41.16 95.26 41.02Q95.17 40.67 94.95 40.36Q94.73 40.04 94.63 39.75Q94.43 38.96 94.46 38.11Q94.48 37.26 94.38 36.43Q94.29 35.74 94.07 35.08Q93.85 34.42 93.85 33.69Q93.85 33.30 93.99 33.01Q94.14 32.71 94.14 32.37Q94.19 31.98 94.04 31.69Q93.90 31.40 93.85 31.01Q93.70 30.66 93.38 30.52Q93.07 30.37 92.77 30.18Q92.38 28.76 91.70 26.93Q91.02 25.10 90.63 23.63Q90.63 23.54 90.55 23.90Q90.48 24.27 90.36 24.80Q90.23 25.34 90.04 25.93Q89.84 26.51 89.55 26.86Q89.94 27.54 89.60 28.52Q89.26 29.49 89.01 30.47Q88.67 31.88 88.38 33.33Q88.09 34.77 87.60 36.18Q87.50 36.52 87.35 36.77Q87.21 37.01 87.11 37.30Q86.96 37.79 86.96 38.33Q86.96 38.87 86.87 39.40Q86.77 39.94 86.69 40.43Q86.62 40.92 86.52 41.41Q86.38 42.29 86.21 43.36Q86.04 44.43 85.77 45.43Q85.50 46.44 85.06 47.24Q84.62 48.05 83.94 48.39Q83.40 48.73 82.98 48.63Q82.57 48.54 82.13 48.24Q81.88 48.29 81.84 48.56Q81.79 48.83 81.59 48.93Q80.91 48.88 80.47 49.15Q80.03 49.41 79.49 49.56Q79.35 49.61 79.17 49.58Q79.00 49.56 78.86 49.66Q78.42 49.80 78.08 50.05Q77.73 50.29 77.42 50.51Q77.10 50.73 76.76 50.88Q76.42 51.03 76.03 50.93Q75.44 50.78 75.17 50.29Q74.90 49.80 74.51 49.41Q74.61 48.73 74.83 47.90Q75.05 47.07 75.32 46.22Q75.59 45.36 75.88 44.56Q76.17 43.75 76.42 43.12Q76.56 42.58 76.73 42.09Q76.90 41.60 77.05 41.06Q77.20 40.58 77.44 40.11Q77.69 39.65 77.78 39.16Q77.88 38.62 77.83 38.11Q77.78 37.60 77.83 37.06Q77.93 36.57 78.17 35.99Q78.42 35.40 78.56 34.86Q79.05 33.20 79.59 31.67Q80.13 30.13 81.10 28.96Q81.10 28.27 81.30 27.69Q81.49 27.10 81.69 26.56Q81.88 26.03 81.93 25.51Q81.98 25 81.69 24.41Q81.88 23.54 82.20 22.73Q82.52 21.92 82.71 21.00Q82.76 20.75 82.74 20.46Q82.71 20.17 82.81 19.92Q82.91 19.48 83.18 18.97Q83.45 18.46 83.76 17.94Q84.08 17.43 84.35 16.94Q84.62 16.46 84.72 16.06Q85.25 15.97 85.74 15.84Q86.23 15.72 86.91 15.72Q87.21 15.72 87.50 15.80Q87.79 15.87 88.09 15.82Q88.62 15.72 88.89 15.33Q89.16 14.94 89.55 14.75Q90.23 14.65 90.89 14.62Q91.55 14.60 92.19 14.40Q92.48 14.31 92.94 14.16Q93.41 14.01 93.70 14.01Q94.29 14.01 94.65 14.45Q95.02 14.89 95.26 15.50Q95.51 16.11 95.70 16.72Q95.90 17.33 96.24 17.68Q96.24 19.14 96.39 20.34Q96.53 21.53 96.63 23.10Q96.83 24.76 97.17 26.15Q97.51 27.54 97.90 29.00Q98.05 29.64 98.12 30.27Q98.19 30.91 98.44 31.45Q98.83 32.42 99.24 33.25Q99.66 34.08 99.76 35.06Q99.90 36.18 99.85 37.18Q99.80 38.18 100.05 39.16Q100.29 39.94 100.59 40.43Q100.88 40.92 101.42 41.55Q101.95 40.87 102.05 40.09Q102.15 39.31 102.25 38.53Q102.39 37.70 102.64 36.94Q102.88 36.18 103.13 35.35Q103.37 34.18 103.78 32.91Q104.20 31.64 104.64 30.62Q104.74 30.32 104.98 29.98Q105.22 29.64 105.42 29.30Q105.71 28.76 105.54 28.05Q105.37 27.34 105.47 26.66Q105.57 26.17 105.74 25.61Q105.91 25.05 106.05 24.46Q106.40 23.05 106.47 21.44Q106.54 19.82 106.88 18.65Q107.03 18.26 107.28 17.58Q107.52 16.89 107.47 16.41Q107.47 16.02 107.20 15.82Q106.93 15.63 106.93 15.23Q106.93 14.84 107.30 14.55Q107.67 14.26 108.18 14.06Q108.69 13.87 109.25 13.77Q109.81 13.67 110.21 13.67Q110.64 13.67 111.01 13.77Q111.38 13.87 111.72 13.96Q112.06 14.06 112.48 14.14Q112.89 14.21 113.43 14.16Q114.26 14.06 115.28 13.94Q116.31 13.82 117.29 13.77Q117.77 13.72 118.24 13.70Q118.70 13.67 119.04 13.57Q119.53 13.43 120.02 13.26Q120.51 13.09 121.19 12.99Q121.78 12.89 122.34 12.72Q122.90 12.55 123.29 12.40Q123.44 12.30 123.61 12.28Q123.78 12.26 124.02 12.50ZM132.86 24.37Q132.62 24.46 132.28 24.49Q131.93 24.51 131.69 24.66Q131.59 25.05 131.52 25.44Q131.45 25.83 131.54 26.22Q131.05 27.34 130.35 28.47Q129.64 29.59 128.96 30.47Q128.47 32.23 128.05 33.72Q127.64 35.21 127.64 37.35Q127.54 37.60 127.44 37.89Q127.34 38.18 127.34 38.57Q127.34 38.87 127.51 39.11Q127.69 39.36 127.69 39.65Q127.78 40.09 127.56 40.53Q127.34 40.97 127.34 41.41Q127.34 41.75 127.49 41.99Q127.64 42.24 127.54 42.58Q128.17 43.26 128.83 43.65Q129.49 44.04 129.98 44.87Q130.13 44.87 130.44 45.07Q130.76 45.26 131.15 45.48Q131.54 45.70 132.01 45.92Q132.47 46.14 132.86 46.19Q133.45 46.24 133.89 46.17Q134.33 46.09 135.16 46.00Q137.30 45.75 138.96 44.63Q140.63 43.51 141.60 42.24Q141.60 41.26 141.80 40.58Q141.99 39.89 142.38 39.21Q142.63 38.82 142.92 38.57Q143.21 38.33 143.26 37.74Q143.31 37.45 143.29 37.08Q143.26 36.72 143.31 36.33Q143.36 35.94 143.12 35.57Q142.87 35.21 142.77 34.96Q142.68 34.57 142.04 34.08Q141.41 33.59 141.02 33.30Q140.67 33.06 140.28 32.76Q139.89 32.47 139.67 32.18Q139.45 31.88 139.50 31.57Q139.55 31.25 140.14 31.01Q141.16 31.05 142.33 31.20Q143.51 31.35 144.75 31.47Q146.00 31.59 147.22 31.69Q148.44 31.79 149.46 31.69Q150.15 31.64 150.54 31.57Q150.93 31.49 151.22 31.42Q151.51 31.35 151.88 31.25Q152.25 31.15 152.88 31.05Q153.27 31.01 153.54 31.05Q153.81 31.10 154.05 31.10Q154.39 31.01 154.74 30.83Q155.08 30.66 155.47 30.62Q155.96 30.57 156.32 30.62Q156.69 30.66 157.01 30.76Q157.32 30.86 157.71 30.96Q158.11 31.05 158.64 31.10Q159.52 31.20 159.99 31.30Q160.45 31.40 160.45 32.08Q160.45 32.52 160.13 32.71Q159.81 32.91 159.35 32.98Q158.89 33.06 158.37 33.08Q157.86 33.11 157.42 33.15Q156.93 33.25 156.69 33.37Q156.45 33.50 156.30 33.64Q156.15 33.79 156.03 33.96Q155.91 34.13 155.62 34.23Q155.32 34.33 155.08 34.45Q154.83 34.57 154.54 34.67Q153.91 34.91 153.66 35.45Q153.42 35.99 153.03 36.57Q152.64 37.01 152.61 37.33Q152.59 37.65 152.29 38.04Q151.81 38.77 151.37 39.94Q150.93 41.11 150.59 42.04Q150 43.65 149.78 45.43Q149.56 47.22 149.17 48.88Q149.02 49.41 149.00 50.02Q148.97 50.63 148.88 51.22Q148.73 51.61 148.56 52.03Q148.39 52.44 148.34 52.83Q148.24 53.27 148.29 53.69Q148.34 54.10 148.19 54.54Q147.95 54.64 147.63 54.74Q147.31 54.83 147.22 55.03Q146.97 55.37 146.97 56.08Q146.97 56.79 146.63 57.18Q146.44 57.42 145.97 57.64Q145.51 57.86 145.21 57.96Q144.82 58.06 144.36 57.91Q143.90 57.76 143.36 57.81Q142.68 57.86 142.19 58.30Q141.70 58.74 141.06 59.08Q140.67 59.33 139.97 59.52Q139.26 59.72 138.77 59.96Q138.43 60.16 138.11 60.35Q137.79 60.55 137.50 60.64Q137.21 60.74 136.91 60.69Q136.62 60.64 136.33 60.30Q136.08 59.47 136.30 58.89Q136.52 58.30 136.89 57.81Q137.26 57.32 137.65 56.84Q138.04 56.35 138.23 55.66Q138.48 54.83 138.55 54.13Q138.62 53.42 138.87 52.73Q139.26 51.90 139.84 51.22Q140.43 50.54 140.67 49.61Q139.84 49.95 138.89 50.42Q137.94 50.88 136.67 51.07Q136.47 51.12 136.28 51.10Q136.08 51.07 135.89 51.07Q135.45 51.17 135.06 51.29Q134.67 51.42 134.28 51.51Q133.74 51.56 133.47 51.49Q133.20 51.42 132.71 51.42Q131.64 51.46 130.96 51.61Q130.27 51.76 129.35 51.56Q128.81 51.46 128.20 51.17Q127.59 50.88 127.00 50.63Q126.42 50.39 125.78 50.20Q125.15 50 124.66 49.76Q123.83 49.37 123.02 48.83Q122.22 48.29 121.24 48.00Q120.26 46.73 119.34 44.92Q118.41 43.12 118.16 41.31Q118.12 40.87 118.16 40.41Q118.21 39.94 118.12 39.50Q118.02 39.26 117.85 39.01Q117.68 38.77 117.58 38.53Q117.43 38.18 117.31 37.55Q117.19 36.91 117.09 36.43Q116.85 34.38 117.14 32.35Q117.43 30.32 118.12 28.66Q118.16 28.52 118.31 28.39Q118.46 28.27 118.55 28.08Q118.65 27.83 118.65 27.61Q118.65 27.39 118.75 27.25Q119.04 26.71 119.24 26.12Q119.43 25.54 119.82 24.95Q120.21 24.22 120.61 23.44Q121.00 22.66 121.53 22.27Q121.88 22.07 122.24 21.92Q122.61 21.78 122.95 21.61Q123.29 21.44 123.56 21.17Q123.83 20.90 123.93 20.41Q123.97 20.12 123.83 19.85Q123.68 19.58 123.83 19.34Q125.34 17.48 127.73 16.16Q127.98 16.06 128.25 15.97Q128.52 15.87 128.76 15.77Q129.10 15.58 129.39 15.33Q129.69 15.09 130.13 14.99Q130.96 14.75 131.86 14.53Q132.76 14.31 133.74 14.16Q134.08 14.11 134.42 14.04Q134.77 13.96 135.06 13.87Q135.55 13.82 136.45 13.84Q137.35 13.87 138.35 13.92Q139.36 13.96 140.31 13.99Q141.26 14.01 141.80 13.92Q142.14 13.82 142.46 13.67Q142.77 13.53 143.16 13.48Q143.99 13.43 144.56 13.55Q145.12 13.67 146.14 13.77Q146.78 13.82 147.39 13.92Q148.00 14.01 148.68 14.06Q149.51 14.11 150.39 14.06Q151.27 14.01 152.10 14.01Q152.93 14.01 153.74 14.11Q154.54 14.21 155.18 14.11Q155.62 14.01 156.01 13.82Q156.40 13.62 156.84 13.67Q157.23 13.77 157.67 14.11Q158.11 14.45 158.11 14.84Q158.11 15.28 157.45 15.82Q156.79 16.36 156.35 16.55Q154.93 17.14 153.27 17.46Q151.61 17.77 149.66 17.92Q149.02 17.97 148.41 17.97Q147.80 17.97 147.27 18.07Q146.97 18.16 146.70 18.29Q146.44 18.41 146.19 18.51Q145.51 18.70 144.75 18.70Q143.99 18.70 143.26 18.80Q141.85 18.95 140.16 19.21Q138.48 19.48 137.55 20.21Q137.30 20.41 136.87 20.61Q136.43 20.80 135.99 21.02Q135.55 21.24 135.13 21.46Q134.72 21.68 134.52 21.92Q133.94 22.51 133.52 22.95Q133.11 23.39 132.86 24.37ZM198.54 13.96Q198.78 14.60 198.41 15.04Q198.05 15.48 197.56 15.72Q196.44 16.36 195.12 16.77Q193.80 17.19 192.68 17.87Q191.99 18.26 191.46 18.80Q190.92 19.34 190.09 19.63Q189.26 19.87 188.26 19.92Q187.26 19.97 186.18 20.07Q185.06 20.17 183.98 20.41Q182.91 20.65 182.03 20.56Q181.64 20.51 181.20 20.39Q180.76 20.26 180.37 20.21Q179.98 20.17 179.49 20.26Q179.00 20.36 178.56 20.41Q178.27 20.46 177.93 20.41Q177.59 20.36 177.20 20.41Q176.76 20.46 176.25 20.51Q175.73 20.56 175.24 20.68Q174.76 20.80 174.39 21.00Q174.02 21.19 173.88 21.53Q173.63 22.95 173.22 24.17Q172.80 25.39 172.36 26.61Q172.12 27.25 171.85 27.98Q171.58 28.71 171.88 29.39Q173.97 29.74 176.00 29.49Q178.03 29.25 179.93 29.39Q180.47 29.44 181.10 29.52Q181.74 29.59 182.28 29.69Q182.67 29.79 183.08 30.15Q183.50 30.52 183.94 30.62Q184.62 30.76 185.25 30.69Q185.89 30.62 186.47 30.71Q186.91 30.96 187.16 31.42Q187.40 31.88 187.89 32.18Q188.18 32.42 188.55 32.42Q188.92 32.42 189.21 32.71Q189.21 33.45 188.96 33.86Q188.72 34.28 188.33 34.42Q187.94 34.57 187.40 34.57Q186.87 34.57 186.23 34.52Q185.35 34.42 184.20 34.45Q183.06 34.47 182.08 34.52Q181.45 34.52 180.86 34.57Q180.27 34.62 179.79 34.52Q179.39 34.42 179.08 34.11Q178.76 33.79 178.27 33.74Q177.83 33.64 177.27 33.81Q176.71 33.98 176.17 34.08Q174.61 34.38 173.22 34.79Q171.83 35.21 170.41 35.50Q169.43 37.45 168.85 40.19Q168.75 40.77 168.65 41.36Q168.55 41.94 168.60 42.41Q168.65 42.87 168.95 43.16Q169.24 43.46 169.97 43.46Q170.61 43.46 171.36 43.36Q172.12 43.26 172.88 43.16Q173.63 43.07 174.44 43.04Q175.24 43.02 176.03 43.21Q176.46 43.31 176.90 43.65Q177.34 43.99 177.93 43.95Q178.32 43.90 178.66 43.53Q179.00 43.16 179.44 43.02Q180.03 42.77 180.76 42.75Q181.49 42.72 182.32 42.75Q183.15 42.77 184.01 42.85Q184.86 42.92 185.64 42.92Q187.01 42.92 188.60 43.02Q190.19 43.12 191.31 43.51Q191.75 44.14 191.41 44.78Q191.06 45.41 190.43 45.51Q189.84 46.34 189.16 46.68Q188.48 47.02 187.30 47.41Q186.43 47.66 185.79 48.05Q185.16 48.44 184.08 48.49Q182.67 48.49 181.25 48.46Q179.83 48.44 178.42 48.68Q177.44 48.88 176.54 49.12Q175.63 49.37 174.66 49.51Q172.22 49.90 169.95 50.44Q167.68 50.98 165.09 51.07Q164.55 51.12 164.01 51.22Q163.48 51.32 163.13 51.22Q162.74 51.17 162.50 50.83Q162.26 50.49 161.87 50.29Q161.52 50.20 161.23 50.15Q160.94 50.10 160.69 50Q160.40 49.85 160.16 49.54Q159.91 49.22 159.62 48.93Q159.33 48.58 159.01 48.29Q158.69 48.00 158.45 47.61Q158.01 46.78 157.69 45.75Q157.37 44.73 157.52 43.46Q157.62 42.58 158.11 41.72Q158.59 40.87 158.84 39.89Q159.03 39.06 159.03 38.28Q159.03 37.50 159.23 36.67Q159.91 35.94 160.18 35.11Q160.45 34.28 160.79 33.01Q160.89 32.57 161.08 32.08Q161.28 31.59 161.28 31.20Q161.33 30.76 161.16 30.35Q160.99 29.93 160.99 29.44Q160.99 28.91 161.28 28.17Q161.57 27.44 161.82 26.76Q162.06 25.98 162.18 25.24Q162.30 24.51 162.50 23.83Q162.60 23.49 162.77 23.22Q162.94 22.95 163.04 22.66Q163.18 22.02 163.28 21.29Q163.38 20.56 163.43 19.82Q163.48 19.09 163.40 18.41Q163.33 17.72 163.09 17.19Q162.89 16.89 162.40 16.41Q161.91 15.92 161.67 15.67Q161.43 15.48 161.08 15.33Q160.74 15.19 160.74 14.94Q160.69 14.65 160.89 14.50Q161.08 14.36 161.33 14.31Q161.57 14.26 161.87 14.28Q162.16 14.31 162.35 14.31Q163.92 14.50 165.38 14.67Q166.85 14.84 168.60 14.70Q168.99 14.65 169.58 14.58Q170.17 14.50 170.78 14.43Q171.39 14.36 171.95 14.31Q172.51 14.26 172.85 14.31Q173.00 14.36 173.17 14.45Q173.34 14.55 173.58 14.65Q174.51 14.99 175.73 15.16Q176.95 15.33 178.22 14.94Q180.13 15.19 182.23 14.89Q184.33 14.60 186.43 14.50Q186.96 14.45 187.50 14.58Q188.04 14.70 188.62 14.75Q189.45 14.84 190.41 14.79Q191.36 14.75 192.33 14.65Q193.16 14.55 194.07 14.53Q194.97 14.50 195.70 14.36Q196.34 14.26 197.05 14.04Q197.75 13.82 198.54 13.96ZM234.42 13.96Q234.67 14.60 234.30 15.04Q233.94 15.48 233.45 15.72Q232.32 16.36 231.01 16.77Q229.69 17.19 228.56 17.87Q227.88 18.26 227.34 18.80Q226.81 19.34 225.98 19.63Q225.15 19.87 224.15 19.92Q223.14 19.97 222.07 20.07Q220.95 20.17 219.87 20.41Q218.80 20.65 217.92 20.56Q217.53 20.51 217.09 20.39Q216.65 20.26 216.26 20.21Q215.87 20.17 215.38 20.26Q214.89 20.36 214.45 20.41Q214.16 20.46 213.82 20.41Q213.48 20.36 213.09 20.41Q212.65 20.46 212.13 20.51Q211.62 20.56 211.13 20.68Q210.64 20.80 210.28 21.00Q209.91 21.19 209.77 21.53Q209.52 22.95 209.11 24.17Q208.69 25.39 208.25 26.61Q208.01 27.25 207.74 27.98Q207.47 28.71 207.76 29.39Q209.86 29.74 211.89 29.49Q213.92 29.25 215.82 29.39Q216.36 29.44 216.99 29.52Q217.63 29.59 218.16 29.69Q218.55 29.79 218.97 30.15Q219.38 30.52 219.82 30.62Q220.51 30.76 221.14 30.69Q221.78 30.62 222.36 30.71Q222.80 30.96 223.05 31.42Q223.29 31.88 223.78 32.18Q224.07 32.42 224.44 32.42Q224.80 32.42 225.10 32.71Q225.10 33.45 224.85 33.86Q224.61 34.28 224.22 34.42Q223.83 34.57 223.29 34.57Q222.75 34.57 222.12 34.52Q221.24 34.42 220.09 34.45Q218.95 34.47 217.97 34.52Q217.33 34.52 216.75 34.57Q216.16 34.62 215.67 34.52Q215.28 34.42 214.97 34.11Q214.65 33.79 214.16 33.74Q213.72 33.64 213.16 33.81Q212.60 33.98 212.06 34.08Q210.50 34.38 209.11 34.79Q207.71 35.21 206.30 35.50Q205.32 37.45 204.74 40.19Q204.64 40.77 204.54 41.36Q204.44 41.94 204.49 42.41Q204.54 42.87 204.83 43.16Q205.13 43.46 205.86 43.46Q206.49 43.46 207.25 43.36Q208.01 43.26 208.76 43.16Q209.52 43.07 210.33 43.04Q211.13 43.02 211.91 43.21Q212.35 43.31 212.79 43.65Q213.23 43.99 213.82 43.95Q214.21 43.90 214.55 43.53Q214.89 43.16 215.33 43.02Q215.92 42.77 216.65 42.75Q217.38 42.72 218.21 42.75Q219.04 42.77 219.90 42.85Q220.75 42.92 221.53 42.92Q222.90 42.92 224.49 43.02Q226.07 43.12 227.20 43.51Q227.64 44.14 227.29 44.78Q226.95 45.41 226.32 45.51Q225.73 46.34 225.05 46.68Q224.37 47.02 223.19 47.41Q222.31 47.66 221.68 48.05Q221.04 48.44 219.97 48.49Q218.55 48.49 217.14 48.46Q215.72 48.44 214.31 48.68Q213.33 48.88 212.43 49.12Q211.52 49.37 210.55 49.51Q208.11 49.90 205.83 50.44Q203.56 50.98 200.98 51.07Q200.44 51.12 199.90 51.22Q199.37 51.32 199.02 51.22Q198.63 51.17 198.39 50.83Q198.14 50.49 197.75 50.29Q197.41 50.20 197.12 50.15Q196.83 50.10 196.58 50Q196.29 49.85 196.04 49.54Q195.80 49.22 195.51 48.93Q195.21 48.58 194.90 48.29Q194.58 48.00 194.34 47.61Q193.90 46.78 193.58 45.75Q193.26 44.73 193.41 43.46Q193.51 42.58 193.99 41.72Q194.48 40.87 194.73 39.89Q194.92 39.06 194.92 38.28Q194.92 37.50 195.12 36.67Q195.80 35.94 196.07 35.11Q196.34 34.28 196.68 33.01Q196.78 32.57 196.97 32.08Q197.17 31.59 197.17 31.20Q197.22 30.76 197.05 30.35Q196.88 29.93 196.88 29.44Q196.88 28.91 197.17 28.17Q197.46 27.44 197.71 26.76Q197.95 25.98 198.07 25.24Q198.19 24.51 198.39 23.83Q198.49 23.49 198.66 23.22Q198.83 22.95 198.93 22.66Q199.07 22.02 199.17 21.29Q199.27 20.56 199.32 19.82Q199.37 19.09 199.29 18.41Q199.22 17.72 198.97 17.19Q198.78 16.89 198.29 16.41Q197.80 15.92 197.56 15.67Q197.31 15.48 196.97 15.33Q196.63 15.19 196.63 14.94Q196.58 14.65 196.78 14.50Q196.97 14.36 197.22 14.31Q197.46 14.26 197.75 14.28Q198.05 14.31 198.24 14.31Q199.80 14.50 201.27 14.67Q202.73 14.84 204.49 14.70Q204.88 14.65 205.47 14.58Q206.05 14.50 206.67 14.43Q207.28 14.36 207.84 14.31Q208.40 14.26 208.74 14.31Q208.89 14.36 209.06 14.45Q209.23 14.55 209.47 14.65Q210.40 14.99 211.62 15.16Q212.84 15.33 214.11 14.94Q216.02 15.19 218.12 14.89Q220.21 14.60 222.31 14.50Q222.85 14.45 223.39 14.58Q223.93 14.70 224.51 14.75Q225.34 14.84 226.29 14.79Q227.25 14.75 228.22 14.65Q229.05 14.55 229.96 14.53Q230.86 14.50 231.59 14.36Q232.23 14.26 232.93 14.04Q233.64 13.82 234.42 13.96ZM263.82 12.74Q263.77 12.99 263.77 13.26Q263.77 13.53 263.72 13.77Q263.33 14.11 263.06 14.21Q262.79 14.31 262.60 14.70Q262.45 14.94 262.45 15.23Q262.45 15.53 262.30 15.77Q262.16 16.11 261.60 16.48Q261.04 16.85 260.79 16.94Q260.50 17.09 260.18 17.19Q259.86 17.29 259.57 17.43Q259.13 17.63 258.86 17.72Q258.59 17.82 258.30 17.85Q258.01 17.87 257.67 17.90Q257.32 17.92 256.79 18.02Q256.64 18.02 256.59 18.09Q256.54 18.16 256.40 18.26Q256.25 18.36 255.96 18.43Q255.66 18.51 255.08 18.55Q254.54 18.60 254.27 18.63Q254.00 18.65 253.42 18.75Q253.08 18.85 252.78 19.04Q252.49 19.24 252.15 19.38Q251.46 19.78 251.15 20.14Q250.83 20.51 250.63 20.80Q250.34 21.29 250.37 21.90Q250.39 22.51 250.15 23.19Q249.95 23.68 249.51 24.17Q249.07 24.66 248.88 25.20Q248.83 25.44 248.88 25.73Q248.93 26.03 248.88 26.37Q248.78 27.00 248.44 27.66Q248.10 28.32 247.85 29.05Q247.75 29.44 247.78 29.83Q247.80 30.22 247.71 30.62Q247.56 31.54 247.27 32.59Q246.97 33.64 246.73 34.67Q246.63 35.25 246.66 35.86Q246.68 36.47 246.53 36.91Q246.44 37.35 246.17 37.74Q245.90 38.13 245.68 38.55Q245.46 38.96 245.39 39.43Q245.31 39.89 245.61 40.43Q245.46 42.24 245.12 44.09Q244.78 45.95 244.24 47.66Q244.09 48.19 243.77 49.07Q243.46 49.95 243.16 50.20Q242.87 50.44 242.41 50.51Q241.94 50.59 241.48 50.49Q241.02 50.39 240.63 50.15Q240.23 49.90 240.09 49.56Q239.79 49.76 239.58 50.10Q239.36 50.44 238.96 50.63Q238.48 50.88 237.96 50.83Q237.45 50.78 236.91 51.03Q236.43 51.22 236.04 51.49Q235.64 51.76 235.25 51.86Q235.01 51.95 234.79 51.93Q234.57 51.90 234.38 52.00Q234.08 52.15 233.94 52.49Q233.79 52.83 233.50 53.03Q233.11 52.93 232.62 52.91Q232.13 52.88 231.88 52.64Q231.79 51.37 232.28 50.42Q232.76 49.46 233.01 48.54Q233.20 48.00 233.28 47.51Q233.35 47.02 233.45 46.39Q233.64 45.70 233.94 44.95Q234.23 44.19 234.38 43.41Q234.52 42.87 234.55 42.31Q234.57 41.75 234.77 41.21Q234.86 40.82 235.25 40.36Q235.64 39.89 235.84 39.36Q236.04 38.82 236.18 38.13Q236.33 37.45 236.57 36.82Q236.82 35.99 237.28 35.40Q237.74 34.81 237.70 34.08Q237.70 33.74 237.55 33.54Q237.40 33.35 237.40 33.11Q237.35 32.71 237.50 32.03Q237.65 31.35 237.79 30.81Q238.04 29.79 238.28 28.96Q238.53 28.13 238.77 27.29Q238.87 26.90 238.94 26.54Q239.01 26.17 239.11 25.88Q239.21 25.49 239.43 25.22Q239.65 24.95 239.75 24.66Q239.84 24.32 239.92 23.83Q239.99 23.34 240.14 22.90Q240.28 22.56 240.45 22.27Q240.63 21.97 240.67 21.68Q240.77 21.04 240.50 20.51Q240.23 19.97 240.23 19.38Q239.70 18.99 238.96 18.92Q238.23 18.85 237.55 18.90Q236.87 18.95 236.33 18.97Q235.79 18.99 235.11 19.04Q233.98 19.09 233.15 19.24Q232.32 19.38 231.57 19.53Q230.81 19.68 230.03 19.75Q229.25 19.82 228.27 19.78Q228.37 19.24 228.39 18.63Q228.42 18.02 228.56 17.63Q228.86 17.38 229.15 17.36Q229.44 17.33 229.79 17.29Q229.59 16.99 229.61 16.75Q229.64 16.50 229.71 16.28Q229.79 16.06 229.91 15.84Q230.03 15.63 230.08 15.43Q230.18 14.94 230.15 14.45Q230.13 13.96 230.57 13.67Q231.25 13.62 231.79 13.67Q232.32 13.72 232.81 13.79Q233.30 13.87 233.81 13.92Q234.33 13.96 235.01 13.92Q236.57 13.82 237.57 13.67Q238.57 13.53 240.04 13.48Q241.06 13.48 242.02 13.50Q242.97 13.53 243.80 13.62Q244.68 13.77 245.09 13.77Q245.51 13.77 245.85 13.75Q246.19 13.72 246.58 13.67Q246.97 13.62 247.75 13.62Q248.58 13.62 249.34 13.50Q250.10 13.38 250.93 13.43Q251.86 13.43 252.22 13.55Q252.59 13.67 252.83 13.77Q253.08 13.87 253.37 13.94Q253.66 14.01 254.44 13.92Q254.98 13.82 255.13 13.70Q255.27 13.57 255.81 13.48Q256.30 13.43 256.79 13.45Q257.28 13.48 257.81 13.43Q259.28 13.28 260.77 12.92Q262.26 12.55 263.82 12.74ZM275.44 13.38Q275.44 13.72 275.24 13.99Q275.05 14.26 274.80 14.48Q274.56 14.70 274.29 14.94Q274.02 15.19 273.88 15.48Q273.83 15.58 273.85 15.80Q273.88 16.02 273.78 16.16Q273.54 16.85 273.10 17.65Q272.66 18.46 272.31 19.29Q272.17 19.68 272.00 20.09Q271.83 20.51 271.58 20.90Q271.39 21.29 271.12 21.70Q270.85 22.12 270.80 22.41Q270.75 22.66 270.87 22.88Q271.00 23.10 271.00 23.34Q270.90 23.83 270.70 24.37Q270.51 24.90 270.41 25.44Q270.31 26.07 270.24 26.64Q270.17 27.20 270.02 27.69Q269.78 28.37 269.48 29.27Q269.19 30.18 269.04 31.15Q270.75 31.15 272.34 30.71Q273.93 30.27 275.34 29.79Q275.68 29.88 276.37 29.93Q277.05 29.98 277.81 29.98Q278.56 29.98 279.35 29.96Q280.13 29.93 280.71 29.83Q281.30 29.79 282.13 29.57Q282.96 29.35 283.20 29.05Q283.59 28.52 283.74 27.49Q283.89 26.46 284.13 25.54Q284.38 24.71 284.72 23.93Q285.06 23.14 285.25 22.41Q285.35 22.12 285.33 21.80Q285.30 21.48 285.40 21.19Q285.64 20.36 286.13 19.58Q286.62 18.80 286.77 18.26Q286.91 17.72 286.96 17.14Q287.01 16.55 287.08 16.02Q287.16 15.48 287.28 15.01Q287.40 14.55 287.74 14.21Q287.94 14.11 288.11 13.99Q288.28 13.87 288.48 13.72Q289.11 13.92 289.60 13.92Q290.09 13.92 290.55 13.84Q291.02 13.77 291.46 13.62Q291.89 13.48 292.48 13.33Q292.92 13.72 293.16 14.18Q293.41 14.65 294.09 14.70Q294.38 14.70 294.68 14.50Q294.97 14.31 295.36 14.21Q296.04 14.01 297.05 13.75Q298.05 13.48 298.78 13.48Q299.61 13.43 300.29 13.60Q300.98 13.77 301.81 13.53Q302.00 13.72 302.15 13.96Q302.29 14.21 302.15 14.70Q301.66 15.09 301.15 15.36Q300.63 15.63 300.12 15.89Q299.61 16.16 299.15 16.46Q298.68 16.75 298.29 17.19Q297.61 17.97 297.14 19.04Q296.68 20.12 296.14 21.09Q295.95 21.44 295.70 21.75Q295.46 22.07 295.36 22.31Q295.07 23.05 294.97 23.90Q294.87 24.76 294.68 25.59Q294.48 26.42 294.24 27.17Q293.99 27.93 293.90 28.76Q294.53 29.00 295.12 28.88Q295.70 28.76 296.48 28.81Q296.88 28.86 297.27 28.96Q297.66 29.05 298.14 29.10Q298.88 29.15 299.46 29.08Q300.05 29.00 300.73 29.05Q300.98 29.05 301.37 29.08Q301.76 29.10 302.12 29.20Q302.49 29.30 302.76 29.47Q303.03 29.64 303.03 29.93Q303.08 30.32 302.42 30.74Q301.76 31.15 301.32 31.35Q300.49 31.74 299.73 31.79Q298.97 31.84 297.90 32.08Q297.22 32.18 296.70 32.59Q296.19 33.01 295.36 33.15Q294.53 33.30 293.95 33.33Q293.36 33.35 292.38 33.45Q291.41 34.72 291.09 36.40Q290.77 38.09 290.53 39.79Q290.33 41.06 290.04 42.36Q289.75 43.65 289.36 44.78Q289.21 45.41 288.79 45.92Q288.38 46.44 287.99 47.17Q287.74 47.71 287.57 48.24Q287.40 48.78 287.11 49.12Q286.72 49.51 286.04 49.71Q285.35 49.90 284.91 50.20Q284.33 50.68 283.96 51.17Q283.59 51.66 282.91 52.05Q282.42 52.10 282.10 52.10Q281.79 52.10 281.54 52.05Q281.30 52.00 281.08 51.88Q280.86 51.76 280.57 51.51Q280.47 51.22 280.52 51.00Q280.57 50.78 280.47 50.44Q280.18 50.34 280.00 50.61Q279.83 50.88 279.44 50.88Q279.05 50.88 278.66 50.42Q278.27 49.95 278.32 49.51Q278.37 49.17 278.56 48.71Q278.76 48.24 278.86 47.71Q278.96 47.27 279.03 46.75Q279.10 46.24 279.25 45.80Q279.35 45.56 279.49 45.31Q279.64 45.07 279.69 44.78Q279.83 43.99 279.81 43.29Q279.79 42.58 279.93 41.89Q280.03 41.65 280.15 41.46Q280.27 41.26 280.37 41.02Q280.66 40.19 280.96 39.40Q281.25 38.62 281.49 37.84Q281.74 37.01 282.06 36.18Q282.37 35.35 282.23 34.57Q281.59 34.52 281.01 34.67Q280.42 34.81 279.83 35.01Q279.25 35.21 278.61 35.38Q277.98 35.55 277.29 35.55Q277.00 35.55 276.49 35.50Q275.98 35.45 275.39 35.40Q274.80 35.35 274.24 35.38Q273.68 35.40 273.34 35.45Q272.75 35.55 272.14 35.84Q271.53 36.13 270.85 36.33Q270.17 36.47 269.60 36.72Q269.04 36.96 268.46 37.06Q267.92 37.40 267.68 38.06Q267.43 38.72 267.26 39.45Q267.09 40.19 266.82 40.82Q266.55 41.46 265.92 41.70Q266.21 41.99 266.16 42.90Q266.11 43.80 265.97 44.58Q265.72 45.90 265.31 47.07Q264.89 48.24 264.36 49.17Q263.57 49.51 262.87 49.88Q262.16 50.24 261.18 50.34Q260.94 50.24 260.86 49.98Q260.79 49.71 260.74 49.41Q260.50 50 260.08 50.37Q259.67 50.73 259.18 51.03Q258.69 51.32 258.23 51.61Q257.76 51.90 257.47 52.39Q256.35 52.39 255.52 52.42Q254.69 52.44 253.91 52.05Q253.66 51.27 253.88 50.51Q254.10 49.76 254.20 49.07Q254.25 48.73 254.20 48.44Q254.15 48.14 254.20 47.85Q254.30 47.12 254.57 46.07Q254.83 45.02 255.18 44.24Q255.32 43.85 255.57 43.58Q255.81 43.31 256.01 42.92Q256.20 42.43 256.25 41.99Q256.30 41.55 256.49 41.16Q256.59 40.72 256.81 40.36Q257.03 39.99 257.13 39.60Q257.23 39.26 257.20 38.92Q257.18 38.57 257.28 38.18Q257.32 37.94 257.47 37.74Q257.62 37.55 257.67 37.30Q257.71 36.77 257.42 36.25Q257.13 35.74 256.88 35.25Q256.64 34.77 256.59 34.23Q256.54 33.69 257.08 33.11Q257.57 32.96 258.08 32.84Q258.59 32.71 258.94 32.47Q259.18 31.49 259.33 30.57Q259.47 29.64 259.72 28.71Q259.81 28.22 260.03 27.78Q260.25 27.34 260.35 26.95Q260.45 26.51 260.40 26.05Q260.35 25.59 260.50 25.20Q260.60 24.80 260.89 24.56Q261.18 24.32 261.33 23.93Q260.94 23.34 261.01 22.46Q261.08 21.58 261.35 20.61Q261.62 19.63 261.96 18.63Q262.30 17.63 262.45 16.70Q262.70 15.67 262.94 14.89Q263.18 14.11 264.11 13.92Q265.87 14.11 267.58 13.75Q269.29 13.38 271.00 12.94Q271.24 12.89 271.26 13.11Q271.29 13.33 271.48 13.38Q271.83 13.04 272.36 12.87Q272.90 12.70 273.46 12.72Q274.02 12.74 274.56 12.92Q275.10 13.09 275.44 13.38Z" />
</svg>
