<svg xmlns="http://www.w3.org/2000/svg" xmlns:xlink="http://www.w3.org/1999/xlink" viewBox="0 0 67 81" fill="#fff" fill-rule="evenodd" stroke="#000" stroke-linecap="round" stroke-linejoin="round"><use xlink:href="#A" x=".5" y=".5"/><symbol id="A" overflow="visible"><path d="M29.734 71.506H7.805v-3.324H29.92v-6.648H7.805V58.21h21.743l-7.434-7.755 11.522-12.002h6.133V35.13h-7.991c-1.858 0-3.531-.923-4.274-2.216-.929-1.477-.743-3.324.186-4.986L39.584 6.325c-.557-1.662-2.23-2.955-4.088-2.955H4.46C2.044 3.37 0 5.401 0 7.802V80h39.584v-8.679h-7.619-2.23zM7.805 13.341h24.159v3.324H7.805v-3.324zm26.204 35.084l6.504-6.463h-5.389l-8.549 8.679 8.549 8.679h5.389l-6.504-6.463h5.389 14.681v-4.431H39.398zm17.654 8.863h-5.575l6.504 6.463h-5.389-14.124v4.432h14.124 5.389l-6.504 6.463h5.575l8.363-8.678zM48.876.969c-.743-1.292-1.858-1.292-2.602 0L30.478 29.775c-.743 1.293-.186 2.216 1.301 2.216h31.593c1.487 0 2.044-.923 1.301-2.216L48.876.969zM47.575 8.54c1.673 0 3.159 1.477 3.159 3.139s-1.487 3.139-3.159 3.139-3.159-1.477-3.159-3.139c0-1.847 1.487-3.139 3.159-3.139zm6.504 13.295c-.743.184-1.301.369-1.672.738l-3.903-7.201c.557-.185 1.115-.369 1.487-.923l4.088 7.386zm-9.292-7.202c.372.369.929.739 1.487.923l-3.903 7.201c-.372-.369-.929-.739-1.673-.739l4.088-7.386zm-4.646 14.218c-1.673 0-3.159-1.477-3.159-3.139s1.487-3.139 3.159-3.139S43.3 24.05 43.3 25.712c-.186 1.847-1.487 3.139-3.159 3.139zm10.779-2.216h-6.876c.186-.369.186-.554.186-.923s0-.554-.186-.923h6.876c-.186.37-.186.554-.186.923s0 .739.186.923zm3.903 2.216c-1.672 0-3.159-1.477-3.159-3.139s1.487-3.139 3.159-3.139 3.159 1.477 3.159 3.139c-.186 1.847-1.487 3.139-3.159 3.139z" fill="#00188f" stroke="none"/></symbol></svg>