<?xml version="1.0"?><!DOCTYPE svg  PUBLIC '-//W3C//DTD SVG 1.1//EN'  'http://www.w3.org/Graphics/SVG/1.1/DTD/svg11.dtd'><svg height="512px" style="enable-background:new 0 0 512 512;" version="1.1" viewBox="0 0 512 512" width="512px" xml:space="preserve" xmlns="http://www.w3.org/2000/svg" xmlns:xlink="http://www.w3.org/1999/xlink"><g id="_x34_0_x2C__Microsoft_x2C__Admin"><g><path d="M48.5,96v320l240,30c0-12.107,0-370.376,0-380L48.5,96z" style="fill:#9BC9FF;"/><path d="M186.14,195.65l37.43,120.7H194.2l-9.31-30.979h-34.57l-8.59,30.979h-28.3l36.89-120.7H186.14z     M180.95,264.95l-7.53-25.6c-2.14-7.17-4.29-16.12-6.08-23.28h-0.36c-1.79,7.16-3.58,16.29-5.55,23.28l-7.17,25.6H180.95z" style="fill:#FFFFFF;"/><path d="M338.5,441c11.05,0,20,8.95,20,20s-8.95,20-20,20c-11.051,0-20-8.95-20-20S327.449,441,338.5,441z" style="fill:#9BC9FF;"/><circle cx="393.5" cy="76" r="30" style="fill:#9BC9FF;"/><path d="M311.51,232.29c13.051,0,23.7,10.65,23.7,23.72c0,13.05-10.649,23.7-23.7,23.7    c-1.02,0-2.02-0.08-3.01-0.2v-47.02C309.49,232.37,310.49,232.29,311.51,232.29z" style="fill:#FFFFFF;"/><path d="M311.529,309.71c29.551,0,53.681-24.13,53.681-53.68c0-29.61-24.13-53.74-53.681-53.74    c-1.02,0-2.029,0.04-3.029,0.1V129h22.43l3.87,37.08c8.49,2.15,16.49,5.53,23.851,9.89l28.91-23.49l27.51,27.46l-23.53,28.91    c4.35,7.36,7.739,15.42,9.88,23.86l37.08,3.87v38.84l-37.08,3.87c-2.141,8.49-5.53,16.5-9.88,23.86l23.53,28.909l-27.51,27.511    l-28.91-23.54c-7.36,4.359-15.36,7.739-23.851,9.89L330.93,383H308.5v-73.38C309.5,309.67,310.51,309.71,311.529,309.71z" style="fill:#FFFFFF;"/><circle cx="461" cy="103.5" r="7.5" style="fill:#1E81CE;"/><circle cx="461" cy="413.5" r="7.5" style="fill:#1E81CE;"/><circle cx="396" cy="448.5" r="7.5" style="fill:#1E81CE;"/><circle cx="331" cy="33.5" r="7.5" style="fill:#1E81CE;"/><circle cx="116" cy="33.5" r="7.5" style="fill:#1E81CE;"/><circle cx="111" cy="458.5" r="7.5" style="fill:#1E81CE;"/><path d="M330.93,388H308.5c-2.762,0-5-2.238-5-5v-73.38c0-2.762,2.238-5,5-5s5,2.238,5,5V378h12.924    l3.402-32.6c0.219-2.085,1.714-3.813,3.746-4.327c7.828-1.983,15.408-5.127,22.529-9.345c1.804-1.068,4.08-0.899,5.705,0.425    l25.41,20.689l21.126-21.127l-20.681-25.409c-1.321-1.623-1.492-3.898-0.427-5.7c4.229-7.156,7.37-14.739,9.337-22.538    c0.512-2.035,2.241-3.533,4.328-3.751l32.6-3.402v-29.83l-32.6-3.402c-2.084-0.218-3.813-1.712-4.327-3.744    c-1.987-7.839-5.13-15.424-9.338-22.545c-1.065-1.802-0.895-4.077,0.427-5.7l20.678-25.407l-21.123-21.085l-25.414,20.649    c-1.624,1.32-3.9,1.488-5.701,0.421c-7.121-4.218-14.7-7.362-22.529-9.345c-2.032-0.515-3.527-2.243-3.746-4.328L326.424,134    H313.5v68.39c0,2.761-2.238,5-5,5s-5-2.239-5-5V129c0-2.761,2.238-5,5-5h22.43c2.561,0,4.707,1.934,4.973,4.481l3.516,33.68    c6.453,1.896,12.729,4.501,18.73,7.774l26.259-21.335c1.986-1.615,4.873-1.468,6.685,0.342l27.51,27.46    c1.816,1.813,1.966,4.705,0.346,6.695l-21.373,26.26c3.266,6.002,5.866,12.279,7.765,18.735l33.681,3.515    c2.547,0.266,4.48,2.413,4.48,4.973v38.84c0,2.561-1.934,4.707-4.48,4.973l-33.677,3.516c-1.888,6.436-4.489,12.714-7.768,18.736    l21.372,26.259c1.619,1.988,1.471,4.879-0.342,6.691l-27.51,27.511c-1.813,1.814-4.703,1.96-6.693,0.342l-26.257-21.38    c-6.002,3.271-12.276,5.875-18.728,7.772l-3.516,33.68C335.637,386.065,333.49,388,330.93,388z" style="fill:#1E81CE;"/><path d="M311.529,314.71c-1.189,0-2.324-0.049-3.277-0.096c-2.662-0.133-4.752-2.329-4.752-4.994v-30.11    c0-2.762,2.238-5,5-5s5,2.238,5,5v25.161c25.932-1.038,46.71-22.459,46.71-48.641c0-26.214-20.778-47.662-46.71-48.701v25.161    c0,2.761-2.238,5-5,5s-5-2.239-5-5v-30.1c0-2.645,2.061-4.833,4.7-4.991c1.222-0.073,2.312-0.109,3.329-0.109    c32.357,0,58.681,26.351,58.681,58.74C370.21,288.387,343.887,314.71,311.529,314.71z" style="fill:#1E81CE;"/><path d="M311.51,284.71c-1.119,0-2.301-0.077-3.612-0.236c-2.51-0.305-4.397-2.436-4.397-4.964v-47.02    c0-2.528,1.888-4.659,4.397-4.963c1.312-0.159,2.493-0.237,3.612-0.237c15.825,0,28.7,12.884,28.7,28.72    C340.21,271.835,327.335,284.71,311.51,284.71z M313.5,237.396v37.209c9.379-0.996,16.71-8.955,16.71-18.595    C330.21,246.36,322.879,238.393,313.5,237.396z" style="fill:#1E81CE;"/><path d="M223.59,321.35c-0.007,0-0.013,0-0.02,0H194.2c-2.207,0-4.153-1.447-4.789-3.561l-8.24-27.419    h-27.049l-7.574,27.315c-0.601,2.165-2.571,3.664-4.818,3.664h-28.3c-1.585,0-3.076-0.752-4.019-2.025    c-0.943-1.274-1.226-2.92-0.763-4.437l36.89-120.699c0.643-2.103,2.583-3.539,4.782-3.539h35.82c2.191,0,4.126,1.426,4.775,3.519    l37.298,120.274c0.243,0.587,0.376,1.231,0.376,1.906C228.59,319.111,226.351,321.35,223.59,321.35z M197.918,311.35h18.866    l-34.329-110.7H154.02l-33.834,110.7h17.742l7.574-27.315c0.601-2.165,2.571-3.664,4.818-3.664h34.57    c2.207,0,4.153,1.447,4.789,3.561L197.918,311.35z" style="fill:#1E81CE;"/><path d="M180.95,269.95h-26.69c-1.564,0-3.039-0.732-3.984-1.979s-1.253-2.863-0.831-4.37l7.17-25.6    c1.146-4.065,2.252-8.977,3.321-13.726c0.751-3.337,1.461-6.489,2.193-9.418c0.556-2.226,2.556-3.787,4.851-3.787h0.36    c2.294,0,4.294,1.562,4.851,3.787l0.906,3.641c1.574,6.344,3.357,13.534,5.115,19.422l7.536,25.619    c0.445,1.512,0.15,3.145-0.793,4.406S182.525,269.95,180.95,269.95z M160.853,259.95h13.415l-5.644-19.189    c-0.417-1.395-0.833-2.854-1.246-4.353c-0.371,1.487-0.749,2.93-1.135,4.299L160.853,259.95z" style="fill:#1E81CE;"/><path d="M288.5,451c-0.206,0-0.413-0.013-0.62-0.039l-240-30c-2.502-0.313-4.38-2.439-4.38-4.961V96    c0-2.521,1.878-4.648,4.38-4.961l240-30c1.425-0.179,2.854,0.264,3.929,1.213c1.076,0.949,1.691,2.314,1.691,3.749v150    c0,2.761-2.238,5-5,5s-5-2.239-5-5V71.664l-230,28.75v311.172l230,28.75V306c0-2.762,2.238-5,5-5s5,2.238,5,5v140    c0,1.435-0.615,2.799-1.691,3.748C290.891,450.56,289.711,451,288.5,451z" style="fill:#1E81CE;"/><path d="M393.5,111c-19.299,0-35-15.701-35-35s15.701-35,35-35s35,15.701,35,35S412.799,111,393.5,111z     M393.5,51c-13.785,0-25,11.215-25,25s11.215,25,25,25s25-11.215,25-25S407.285,51,393.5,51z" style="fill:#1E81CE;"/><path d="M338.5,486c-13.785,0-25-11.215-25-25s11.215-25,25-25s25,11.215,25,25S352.285,486,338.5,486z     M338.5,446c-8.271,0-15,6.729-15,15s6.729,15,15,15s15-6.729,15-15S346.771,446,338.5,446z" style="fill:#1E81CE;"/><path d="M288.5,251c-2.762,0-5-2.239-5-5v-30c0-2.761,2.238-5,5-5s5,2.239,5,5v30    C293.5,248.761,291.262,251,288.5,251z" style="fill:#1E81CE;"/><path d="M288.5,281c-2.762,0-5-2.238-5-5v-30c0-2.761,2.238-5,5-5s5,2.239,5,5v30    C293.5,278.762,291.262,281,288.5,281z" style="fill:#1E81CE;"/><path d="M288.5,311c-2.762,0-5-2.238-5-5v-30c0-2.762,2.238-5,5-5s5,2.238,5,5v30    C293.5,308.762,291.262,311,288.5,311z" style="fill:#1E81CE;"/></g></g><g id="Layer_1"/></svg>