<?xml version="1.0" encoding="UTF-8"?>
<svg xmlns="http://www.w3.org/2000/svg" xmlns:xlink="http://www.w3.org/1999/xlink" width="36px" height="46px" viewBox="0 0 36 46" version="1.1">
<g id="surface1">
<path style=" stroke:none;fill-rule:nonzero;fill:rgb(0%,67.058825%,92.54902%);fill-opacity:1;" d="M 10.140625 34.519531 L 3.414062 34.519531 L 3.414062 36.808594 L 10.140625 36.808594 L 10.140625 38.757812 C 10.140625 39.09375 9.902344 38.996094 9.707031 38.996094 L 3.796875 38.996094 C 3.507812 38.996094 3.363281 39.042969 3.363281 39.378906 L 3.363281 41.28125 L 9.613281 41.28125 C 9.996094 41.28125 10.09375 41.425781 10.09375 41.757812 L 10.09375 44.472656 C 12.6875 44.851562 15.234375 45.234375 17.832031 45.566406 L 17.832031 45.660156 L 0.578125 45.660156 C 0 45.660156 0 45.660156 0 45.089844 L 0 2.574219 C 0 0.863281 0.863281 0.00390625 2.59375 0.00390625 L 19.898438 0.00390625 C 21.195312 0.00390625 22.0625 0.574219 22.351562 1.574219 C 22.445312 1.8125 22.445312 2.097656 22.445312 2.386719 L 22.445312 20.90625 C 22.445312 21.332031 22.253906 21.382812 21.917969 21.429688 L 10.382812 23.144531 C 10.046875 23.191406 10.046875 23.429688 10.046875 23.667969 L 10.046875 33.855469 C 10.140625 34.046875 10.140625 34.234375 10.140625 34.519531 Z M 3.414062 8.90625 L 19.128906 8.90625 L 19.128906 6.671875 L 3.414062 6.671875 Z M 3.414062 8.90625 "/>
<path style=" stroke:none;fill-rule:nonzero;fill:rgb(10.588235%,20.392157%,55.686277%);fill-opacity:1;" d="M 22.589844 33.378906 C 22.589844 33.1875 22.542969 33.046875 22.542969 32.902344 L 22.542969 24.238281 C 22.542969 23.855469 22.636719 23.714844 23.023438 23.667969 C 26.867188 23.191406 30.664062 22.667969 34.511719 22.144531 C 34.992188 22.09375 35.421875 22 35.953125 21.953125 C 35.953125 22.144531 36 22.332031 36 22.523438 L 36 32.808594 C 36 33.285156 35.902344 33.378906 35.421875 33.378906 L 23.070312 33.378906 C 22.972656 33.378906 22.78125 33.378906 22.589844 33.378906 Z M 22.589844 44.089844 L 22.589844 34.664062 L 36 34.664062 L 36 45.996094 C 31.53125 45.375 27.058594 44.710938 22.589844 44.089844 Z M 21.386719 23.953125 L 21.386719 33.378906 C 21.246094 33.378906 21.101562 33.425781 20.957031 33.425781 L 12.929688 33.425781 C 12.59375 33.425781 12.402344 33.332031 12.402344 32.949219 L 12.402344 25.238281 C 12.402344 25.238281 12.449219 25.140625 12.785156 25.09375 C 15.574219 24.714844 18.410156 24.332031 21.195312 23.953125 Z M 21.386719 43.898438 C 19.226562 43.566406 17.0625 43.28125 14.949219 42.949219 C 14.226562 42.851562 13.554688 42.710938 12.832031 42.664062 C 12.59375 42.613281 12.496094 42.566406 12.496094 42.328125 L 12.496094 34.855469 C 12.496094 34.808594 12.496094 34.757812 12.542969 34.710938 L 21.4375 34.710938 C 21.386719 37.710938 21.386719 40.804688 21.386719 43.898438 Z M 21.386719 43.898438 "/>
</g>
</svg>
